<svg width="42" height="42" viewBox="0 0 42 42" fill="none" xmlns="http://www.w3.org/2000/svg">
<path d="M32 0C37.5228 0 42 4.47715 42 10V42H10C4.47715 42 1.61069e-08 37.5228 0 32V0H32ZM14.5244 20.6416C14.2513 20.6304 13.9839 20.7276 13.7812 20.9111C13.1201 21.5315 12.6123 22.2977 12.2988 23.1484C11.9854 23.9992 11.875 24.9114 11.9756 25.8125C12.0763 26.7136 12.3855 27.5792 12.8789 28.3398C13.3725 29.1006 14.0373 29.7361 14.8193 30.1953C15.6013 30.6545 16.4799 30.925 17.3848 30.9854C18.2895 31.0457 19.1962 30.8941 20.0322 30.543C20.8681 30.1918 21.611 29.6502 22.2012 28.9619C22.7913 28.2736 23.2131 27.4569 23.4326 26.5771C23.4983 26.3097 23.4555 26.027 23.3135 25.791C23.1714 25.5549 22.9411 25.3845 22.6738 25.3174C22.4058 25.2517 22.1223 25.2944 21.8857 25.4365C21.6492 25.5788 21.4788 25.8095 21.4111 26.0771C21.2697 26.6425 20.9977 27.1671 20.6182 27.6094C20.2385 28.0516 19.7611 28.3995 19.2236 28.625C18.6861 28.8505 18.1031 28.9472 17.5215 28.9082C16.94 28.8691 16.3755 28.6956 15.873 28.4004C15.3705 28.1051 14.9441 27.6961 14.627 27.207C14.3098 26.7179 14.1105 26.1614 14.0459 25.582C13.9814 25.0029 14.0533 24.4169 14.2549 23.8701C14.4565 23.3232 14.7828 22.8304 15.208 22.4316C15.404 22.2413 15.517 21.9812 15.5234 21.708C15.5299 21.4348 15.429 21.1701 15.2422 20.9707C15.0553 20.7713 14.7975 20.6528 14.5244 20.6416ZM18.1006 11.3643C17.5797 11.058 16.971 10.935 16.3721 11.0146C15.7733 11.0944 15.2185 11.3721 14.7959 11.8037C14.3732 12.2356 14.1069 12.7969 14.04 13.3975C13.9732 13.9981 14.1093 14.604 14.4268 15.1182C14.7443 15.6324 15.2251 16.026 15.792 16.2354C15.8648 16.2623 15.9289 16.3088 15.9766 16.3701C16.0242 16.4314 16.0534 16.5049 16.0615 16.582L16.7373 22.957C16.7702 23.2114 16.855 23.4564 16.9863 23.6768C17.1177 23.8971 17.2928 24.0883 17.501 24.2383C17.7091 24.3882 17.9457 24.494 18.1963 24.5488C18.4469 24.6036 18.7063 24.6069 18.958 24.5576C20.089 24.3359 22.4032 23.9434 23.8564 23.6992C23.9573 23.6823 24.0609 23.7033 24.1475 23.7578C24.2341 23.8124 24.2979 23.8967 24.3262 23.9951L25.5186 28.1621C25.5809 28.3792 25.7123 28.57 25.8926 28.7061C26.0729 28.8422 26.2926 28.9165 26.5186 28.917C26.6649 28.9169 29.0463 28.5095 29.1904 28.4854C29.4629 28.44 29.7065 28.2882 29.8672 28.0635C30.0277 27.8387 30.0922 27.5596 30.0469 27.2871C30.0016 27.0145 29.8498 26.7711 29.625 26.6104C29.4003 26.4498 29.122 26.3845 28.8496 26.4297L27.6318 26.6338C27.531 26.6506 27.4273 26.6297 27.3408 26.5752C27.2544 26.5207 27.1914 26.436 27.1631 26.3379L25.9707 22.1709C25.9008 21.9248 25.7425 21.713 25.5264 21.5762C25.3104 21.4396 25.0518 21.3868 24.7998 21.4287C24.6331 21.4562 21.2085 22.0209 19.2227 22.3867C19.1664 22.3971 19.1085 22.3958 19.0527 22.3828C18.9968 22.3698 18.9435 22.3449 18.8975 22.3105C18.8516 22.2762 18.8135 22.2324 18.7852 22.1826C18.7568 22.1328 18.7385 22.0775 18.7324 22.0205L18.6055 20.8174C18.5944 20.7123 18.6238 20.6068 18.6875 20.5225C18.7512 20.4383 18.8443 20.3813 18.9482 20.3633L22.7393 19.707C22.8739 19.6837 23.0027 19.6345 23.1182 19.5615C23.2337 19.4884 23.3343 19.393 23.4131 19.2812C23.4917 19.1696 23.5472 19.0434 23.5771 18.9102C23.6072 18.7768 23.6112 18.6386 23.5879 18.5039C23.5646 18.3693 23.5145 18.2405 23.4414 18.125C23.3684 18.0097 23.2736 17.9097 23.1621 17.8311C23.0504 17.7523 22.9234 17.696 22.79 17.666C22.6569 17.6361 22.5193 17.633 22.3848 17.6562L18.7822 18.2793C18.7261 18.289 18.6686 18.2868 18.6133 18.2734C18.5578 18.26 18.5055 18.2356 18.46 18.2012C18.4144 18.1667 18.3767 18.123 18.3486 18.0732C18.3207 18.0236 18.3028 17.9688 18.2969 17.9121L18.124 16.2852C18.1163 16.2118 18.1288 16.1376 18.1592 16.0703C18.1896 16.0029 18.2375 15.9441 18.2979 15.9014C18.7902 15.5511 19.1513 15.046 19.3232 14.4668C19.4952 13.8875 19.4685 13.2673 19.2471 12.7051C19.0256 12.1428 18.6215 11.6706 18.1006 11.3643Z" fill="#F4D300"/>
</svg>
