<svg width="16" height="16" viewBox="0 0 16 16" fill="none" xmlns="http://www.w3.org/2000/svg">
<path d="M11.8003 11.892C11.7498 11.7702 11.6643 11.6661 11.5547 11.5929C11.445 11.5197 11.3161 11.4806 11.1843 11.4807H9.16696C9.14505 11.4808 9.12334 11.4765 9.10308 11.4682C9.08282 11.4598 9.06441 11.4475 9.04892 11.432C9.03342 11.4166 9.02115 11.3981 9.0128 11.3779C9.00446 11.3576 9.00021 11.3359 9.0003 11.314V1C9.0003 0.734784 8.89494 0.48043 8.7074 0.292893C8.51987 0.105357 8.26551 0 8.0003 0C7.73508 0 7.48073 0.105357 7.29319 0.292893C7.10565 0.48043 7.0003 0.734784 7.0003 1V11.314C7.0003 11.3582 6.98274 11.4006 6.95148 11.4319C6.92022 11.4631 6.87783 11.4807 6.83363 11.4807H4.81496C4.68313 11.4807 4.55426 11.5198 4.44466 11.5931C4.33505 11.6663 4.24962 11.7704 4.19918 11.8922C4.14873 12.014 4.13553 12.1481 4.16124 12.2774C4.18695 12.4067 4.25042 12.5254 4.34363 12.6187L7.5283 15.804C7.59021 15.866 7.66374 15.9152 7.74467 15.9487C7.8256 15.9823 7.91235 15.9995 7.99996 15.9995C8.08757 15.9995 8.17432 15.9823 8.25526 15.9487C8.33619 15.9152 8.40971 15.866 8.47163 15.804L11.657 12.6187C11.75 12.5253 11.8133 12.4064 11.8388 12.2771C11.8643 12.1477 11.8509 12.0137 11.8003 11.892Z" fill="white"/>
</svg>
