<svg width="16" height="16" viewBox="0 0 16 16" fill="none" xmlns="http://www.w3.org/2000/svg">
<g clip-path="url(#clip0_2060_169)">
<path d="M15.5329 3.38393C15.2194 2.77343 14.7671 2.24497 14.2122 1.84101C13.6574 1.43706 13.0156 1.16887 12.3383 1.058C11.661 0.947132 10.9672 0.99667 10.3126 1.20264C9.6579 1.4086 9.06068 1.76525 8.56888 2.24393L7.99955 2.7646L7.44821 2.2626C6.95756 1.77464 6.35754 1.41084 5.698 1.20143C5.03847 0.992026 4.33848 0.943056 3.65621 1.0586C2.9779 1.16435 2.33462 1.43044 1.7798 1.83476C1.22498 2.23907 0.774649 2.76994 0.466214 3.38326C0.0539311 4.19121 -0.0901393 5.10952 0.0549154 6.0049C0.19997 6.90029 0.626601 7.72614 1.27288 8.3626L7.52155 14.7999C7.58368 14.8638 7.65799 14.9146 7.74009 14.9493C7.82219 14.984 7.91042 15.0019 7.99955 15.0019C8.08868 15.0019 8.1769 14.984 8.259 14.9493C8.3411 14.9146 8.41542 14.8638 8.47755 14.7999L14.7175 8.3746C15.3665 7.73753 15.7954 6.91017 15.942 6.0127C16.0886 5.11523 15.9453 4.19439 15.5329 3.38393Z" fill="white"/>
</g>
<defs>
<clipPath id="clip0_2060_169">
<rect width="16" height="16" fill="white"/>
</clipPath>
</defs>
</svg>
