<svg width="42" height="42" viewBox="0 0 42 42" fill="none" xmlns="http://www.w3.org/2000/svg">
<path d="M42 32C42 37.5228 37.5228 42 32 42H0V10C0 4.47715 4.47715 1.61064e-08 10 0H42V32ZM21 11C20.8158 11 20.637 11.0613 20.4912 11.1738L11.3242 18.2568C11.2235 18.3346 11.1421 18.4347 11.0859 18.5488C11.0298 18.663 11.0001 18.7888 11 18.916V30.167C11.0001 30.3879 11.0879 30.5997 11.2441 30.7559C11.4003 30.9121 11.6121 30.9999 11.833 31H30.167C30.3879 30.9999 30.5997 30.9121 30.7559 30.7559C30.9121 30.5997 30.9999 30.3879 31 30.167V18.916C30.9999 18.7888 30.9702 18.663 30.9141 18.5488C30.8579 18.4347 30.7765 18.3346 30.6758 18.2568L21.5088 11.1738C21.363 11.0613 21.1842 11 21 11Z" fill="#54D300"/>
</svg>
