<svg width="112" height="112" viewBox="0 0 112 112" fill="none" xmlns="http://www.w3.org/2000/svg">
<g clip-path="url(#clip0_2060_196)">
<path d="M37.6786 75.5779C40.707 70.4908 42.7129 64.7286 39.4484 59.8841C33.6341 52.9091 22.9559 52.7911 14.0475 49.8346C10.9208 48.7923 8.21351 47.9204 5.59803 45.0425C2.5237 41.5813 2.95634 36.2779 5.49971 32.7904C7.89887 29.5913 10.9208 28.313 13.4903 27.4411C20.6354 25.1402 28.1868 25.1402 35.3056 24.6551C36.9837 24.5174 38.8126 24.4322 40.5497 24.2159C41.4608 24.1044 41.6182 22.8392 40.7595 22.5114C40.7529 22.5114 40.7398 22.5049 40.7332 22.4983C35.6989 20.394 29.8387 19.9548 25.2829 16.2772C18.9573 8.79087 34.5321 3.87428 39.5664 2.25508C42.3523 1.40942 45.1382 0.655546 47.9176 0H13.0053C5.82091 0 0 5.82125 0 13.006V81.4975C0 91.6912 11.2682 97.9713 19.8619 92.4844C19.9274 92.4451 19.9864 92.4057 20.052 92.3664C26.8561 88.0332 33.4899 82.5135 37.6786 75.5844V75.5779Z" fill="#35C6FF"/>
<path d="M29.1502 11.8065C28.6783 12.2982 28.8225 13.1111 29.4517 13.3798C33.0112 14.9204 38.4978 15.7332 42.5685 16.9984C45.5707 17.9883 48.9859 19.011 50.3166 22.4722C51.3326 25.0158 49.7332 28.0444 47.4323 29.1326C40.7986 33.2494 9.41944 32.2727 12.9723 38.7232C13.2148 39.1624 13.5754 39.0838 14.1129 39.2804C26.6331 42.8663 44.6464 42.0403 51.7652 56.2329C52.5912 58.0028 53.168 59.7663 53.5548 61.5362V1.25879C47.039 3.04843 40.5036 5.17895 34.4467 8.18135C32.7752 8.93523 30.4022 10.4823 29.1437 11.8L29.1502 11.8065Z" fill="#F4D300"/>
<path d="M35.1352 100.666C30.291 104.953 24.9683 108.683 19.3965 112H53.5615V72.792C51.3066 83.5954 43.1717 93.6449 35.1352 100.666Z" fill="#F4D300"/>
<path d="M98.9946 0H58.4121V34.9406H69.11C72.7087 35.0979 76.3206 35.0651 79.9259 34.9406H112V12.9995C112 5.82125 106.172 0 98.9946 0ZM105.032 8.2271L103.013 10.3511C102.908 10.0954 102.79 9.8463 102.646 9.60375C102.508 9.35464 102.351 9.1252 102.187 8.90887L105.032 8.2271ZM101.708 4.89693L101.02 7.74855C100.804 7.57811 100.574 7.42733 100.332 7.28311C100.089 7.14545 99.8402 7.0209 99.5845 6.91601L101.708 4.89693ZM102.757 12.7635C102.757 15.8511 100.253 18.3553 97.1657 18.3553C94.0783 18.3553 91.5742 15.8511 91.5742 12.7635C91.5742 9.67586 94.0783 7.17167 97.1657 7.17167C100.253 7.17167 102.757 9.67586 102.757 12.7635ZM97.1657 3.68417L97.9982 6.4899C97.7229 6.45713 97.4476 6.43746 97.1657 6.43746C96.8838 6.43746 96.6085 6.45713 96.3332 6.4899L97.1657 3.68417ZM94.7469 6.91601C94.4978 7.0209 94.2487 7.14545 94.0062 7.28311C93.7571 7.42733 93.5276 7.57811 93.3113 7.74855L92.623 4.89693L94.7469 6.91601ZM92.1511 8.90887C91.9806 9.1252 91.8299 9.35464 91.6857 9.60375C91.548 9.8463 91.4235 10.0954 91.3186 10.3511L89.2996 8.2271L92.1511 8.90887ZM90.8925 11.9375C90.8597 12.2063 90.8401 12.4816 90.8401 12.7635C90.8401 13.0454 90.8597 13.3272 90.8925 13.596L88.0869 12.7635L90.8925 11.9375ZM89.2996 17.3064L91.3186 15.1824C91.4235 15.4381 91.548 15.6872 91.6857 15.9298C91.8299 16.1723 91.9806 16.4018 92.1511 16.6246L89.2996 17.3064ZM92.623 20.63L93.3113 17.785C93.5276 17.9488 93.7571 18.1062 94.0062 18.2438C94.2487 18.3881 94.4978 18.5061 94.7469 18.6109L92.623 20.63ZM97.1657 21.8493L96.3332 19.0371C96.6085 19.0764 96.8838 19.0961 97.1657 19.0961C97.4476 19.0961 97.7229 19.0764 97.9982 19.0371L97.1657 21.8493ZM99.5845 18.6109C99.8402 18.5061 100.089 18.3881 100.332 18.2438C100.574 18.1062 100.804 17.9488 101.02 17.785L101.708 20.63L99.5845 18.6109ZM102.187 16.6246C102.351 16.4018 102.508 16.1723 102.646 15.9298C102.79 15.6872 102.908 15.4381 103.013 15.1824L105.032 17.3064L102.187 16.6246ZM103.439 13.596C103.478 13.3272 103.491 13.0454 103.491 12.7635C103.491 12.4816 103.478 12.2063 103.439 11.9375L106.251 12.7635L103.439 13.596Z" fill="#F48600"/>
<path d="M109.47 36.5794C107.097 36.6056 104.73 36.6384 102.358 36.6646C101.394 36.6777 100.404 36.6908 99.493 37.0055C99.4143 37.0317 99.3291 37.0645 99.2504 37.0973C98.4704 37.4185 98.7719 38.5788 99.611 38.5133C101.433 38.3756 103.295 38.7034 104.966 39.4572C105.694 39.785 105.478 40.8601 104.685 40.8798L88.9 41.1748C88.2576 41.1879 87.4513 41.319 87.3005 41.9483C87.2022 42.3482 87.4316 42.7481 87.7856 42.9579C88.3362 43.2725 88.959 43.207 89.562 43.1611C92.5708 42.912 95.6189 43.1676 98.549 43.9084C99.1259 44.0526 99.0538 44.8983 98.4573 44.9376L85.8125 45.9734C85.3733 46.0324 85.2881 46.6289 85.6945 46.8059L86.9793 47.3697C87.3792 47.5467 87.3005 48.1432 86.8679 48.2022C82.9414 48.7594 78.9428 48.8381 74.9901 48.4186C74.4788 48.3661 74.328 47.6909 74.7672 47.4221L76.8059 46.1766C76.8911 46.1241 76.9828 46.0586 77.0746 45.9734C77.7695 45.3768 77.3237 44.2427 76.4126 44.2821C75.0884 44.3345 73.7577 44.3411 72.4336 44.2821C72.1386 44.2689 71.8306 44.2558 71.5749 44.1051C71.3193 43.9608 71.1292 43.6462 71.2275 43.3643C71.2865 43.2004 71.4373 43.0759 71.6011 43.0037C71.765 42.9316 71.942 42.912 72.119 42.8923C73.0891 42.7743 74.0658 42.6563 75.036 42.5383C75.5145 42.4793 76.052 42.3875 76.2618 41.9024C76.3536 41.6861 76.3404 41.437 76.2487 41.2207C75.9996 40.6569 75.449 40.5913 74.9311 40.5913L65.7802 40.7159C64.9346 40.729 63.8334 40.5389 63.7481 39.667C63.7088 39.2344 63.971 38.8279 64.3643 38.6313C65.1313 38.2576 65.9179 38.5264 66.6783 38.7296C70.0672 39.6605 73.7709 39.3458 76.9763 37.9167C77.5794 37.6479 77.3958 36.7498 76.7403 36.7433L58.6417 36.5532C58.5631 36.5532 58.4844 36.5532 58.4058 36.5401V53.5711H79.2706C79.0084 53.3417 78.8641 52.9811 79.1001 52.614C79.2247 52.4174 79.4279 52.2797 79.6442 52.2142C80.1293 52.0699 80.6209 52.201 81.106 52.2732C81.6763 52.3518 82.2597 52.3256 82.8234 52.2142C83.3806 52.0962 83.4003 51.3029 82.8431 51.1718C82.1417 51.0014 81.401 50.9621 80.6799 50.9686C79.4607 50.9817 78.2349 51.1128 77.0353 50.9227C76.7272 50.8768 76.4126 50.7982 76.1635 50.6146C76.1635 50.6146 76.1635 50.6146 76.1569 50.6146C75.7964 50.3459 75.9471 49.769 76.3863 49.6706C77.1861 49.4936 77.8612 49.4215 78.7462 49.5264C80.0703 49.6838 81.46 49.5789 82.7906 49.592C85.5765 49.6182 88.3625 49.6444 91.1484 49.6706C92.6691 49.6838 94.1965 49.7034 95.7173 49.7165C96.0122 49.7165 96.3203 49.7231 96.5956 49.8411C96.8709 49.9591 97.1069 50.2082 97.1135 50.5097C97.1135 50.8113 96.8775 51.0735 96.5956 51.1915C96.3138 51.3095 96.0057 51.3095 95.7041 51.3161C93.6458 51.3226 91.581 51.3357 89.5227 51.3423C89.2474 51.3423 88.9459 51.3554 88.723 51.5258C88.5067 51.6963 88.4608 52.0962 88.7033 52.2273C89.3392 52.0175 90.0209 51.8143 90.6567 52.1355C91.0238 52.3256 91.2663 52.7124 91.1877 53.1188C91.1484 53.322 91.0369 53.4794 90.8927 53.5908H111.993V36.3237C111.181 36.5532 110.315 36.5728 109.47 36.5794Z" fill="#35C6FF"/>
<path d="M90.5911 83.792L90.4862 83.8969C90.2174 84.1592 89.8831 84.4869 89.9814 84.8671L90.4468 84.3099L91.3449 83.4512L91.3252 83.4053L90.5976 83.7986L90.5911 83.792Z" fill="#54D200"/>
<path d="M88.5916 89.5346C88.631 89.5346 88.6768 89.5543 88.6965 89.5936L88.8407 89.8493C88.8997 89.633 88.9587 89.4363 89.0111 89.2527C89.0636 89.0692 89.0964 88.9315 89.1226 88.7873C89.175 88.4268 89.2209 88.0072 89.2471 87.7122C89.2471 87.6467 89.2471 87.5811 89.2471 87.5221V87.4172C89.2406 87.3385 89.2406 87.2402 89.2406 87.1484C88.513 87.7974 88.1656 88.4202 88.0476 89.1937C88.0476 89.2265 88.0213 89.2593 87.9951 89.2724V91.8159C87.9951 91.8159 88.0148 91.8159 88.0279 91.8159C88.1131 91.8159 88.1459 91.7569 88.1721 91.6914C88.4736 91.1473 88.6572 90.6753 88.5851 90.0984C88.572 89.987 88.5195 89.8362 88.4736 89.692C88.454 89.633 88.4802 89.5674 88.5392 89.5412C88.5523 89.5346 88.572 89.5281 88.5916 89.5281V89.5346Z" fill="#54D200"/>
<path d="M91.5021 84.1394C91.4103 84.1394 91.3251 84.1722 91.2464 84.2115C91.1809 84.264 90.7876 84.7753 90.7417 84.8408C90.7417 84.8408 90.7417 84.8408 90.7417 84.8474C90.6696 84.9523 90.5712 85.1162 90.5188 85.2276C90.3615 85.5291 90.3222 85.6209 90.3549 85.6537C90.4074 85.6668 90.4664 85.7324 90.4664 85.7848C90.486 85.8176 90.4926 85.87 90.4795 85.9028C90.4664 85.9356 90.4401 85.9749 90.4074 85.988C90.2959 86.0208 90.2107 86.0536 90.1517 86.0929C90.0796 86.224 90.1058 86.3355 90.1321 86.4404C90.1583 86.5321 90.1714 86.5846 90.1714 86.6305C90.1845 86.9058 90.1779 87.1877 90.1714 87.4696C90.1648 87.7383 90.1583 88.0137 90.1714 88.2759L90.3812 88.2103C91.2333 87.5089 91.8626 86.9058 92.2821 86.3748C92.3936 86.224 92.505 86.0077 92.5837 85.7783C92.5968 85.7324 92.6361 85.7061 92.682 85.6996C92.682 85.6996 92.6885 85.6996 92.6951 85.6996C92.7344 85.6996 92.7738 85.7193 92.7934 85.752L93.4752 85.2997C93.5473 85.2342 93.6063 85.1489 93.6652 85.0572C93.7046 84.9982 93.7505 84.9326 93.7963 84.8802L93.9864 84.6704C94.2093 84.4278 94.4322 84.1853 94.6682 83.9755C94.8058 83.8968 94.8517 83.8706 94.8845 83.8247C94.8845 83.7723 94.9107 83.7067 94.9631 83.6936C95.1729 83.6281 95.4482 83.3331 95.54 83.202C95.5269 83.1692 95.54 83.1233 95.5531 83.0905C95.5728 83.0577 95.6055 83.0315 95.6383 83.025C95.894 82.9791 96.1496 82.6906 96.2348 82.5989C96.3135 82.5202 96.3463 82.4874 96.3266 82.4022C96.2217 82.3432 96.13 82.3235 96.0513 82.3235C96.0251 82.3235 95.9923 82.3235 95.9792 82.3235C95.9726 82.3235 95.9595 82.3235 95.9464 82.3235C95.9071 82.3235 95.8743 82.3039 95.8481 82.2776C95.4744 82.1728 95.068 82.0679 94.6878 82.0679C94.2552 82.0679 93.934 82.1924 93.7177 82.4546C93.6915 82.4809 93.6587 82.5005 93.6259 82.5005C93.6128 82.5005 93.6062 82.5005 93.5931 82.5005C93.5473 82.4874 93.5145 82.4546 93.5079 82.4088L93.1802 82.5464L92.9311 82.7562L92.9901 82.8021C93.0556 82.8021 93.1998 82.7562 93.3309 82.6644C93.3506 82.6513 93.3768 82.6447 93.3965 82.6447C93.4162 82.6447 93.4358 82.6447 93.4555 82.6579C93.4948 82.6775 93.521 82.7169 93.521 82.7627L93.5341 82.9135L93.5866 82.789C93.6521 82.789 93.7111 82.8414 93.7111 82.9135C93.7111 82.9332 93.698 82.9791 93.6915 82.9987C93.7046 83.0446 93.7046 83.0774 93.6718 83.1102C93.6521 83.1299 93.6325 83.1364 93.6128 83.1364C93.5931 83.1364 93.5735 83.1364 93.5538 83.1233C93.4424 83.0774 93.3113 83.0381 93.1802 83.0381V82.9135L93.1474 83.0381H93.0884C92.9376 83.0643 92.4067 83.2544 92.2559 83.3462C92.0855 83.4576 91.915 83.6215 91.7512 83.7854L91.6201 83.91C91.6463 83.9493 91.6463 84.0083 91.6201 84.0476C91.6004 84.087 91.5611 84.1263 91.5152 84.1328L91.5021 84.1394ZM93.5604 83.4314C93.7439 84.1722 93.1146 85.4177 92.2428 84.9785C92.1576 84.9326 92.1314 84.9064 92.1182 84.808C91.9609 83.9099 92.7016 83.2544 93.5604 83.4314Z" fill="#54D200"/>
<path d="M81.8335 90.1635C81.7548 90.8387 82.0695 91.4091 82.3448 91.8286L82.3579 91.0026C82.5545 89.685 82.4824 88.5902 81.5123 87.4561C81.4861 87.4168 81.4598 87.3775 81.4336 87.3381C81.3746 87.2463 81.3156 87.1546 81.2042 87.1152C81.178 87.2136 81.178 87.2857 81.1714 87.3512V87.443C81.1649 87.561 81.1649 87.6659 81.1714 87.7708C81.1976 88.2952 81.3025 88.859 81.5057 89.5997C81.5254 89.6784 81.5516 89.7505 81.5385 89.8292C81.5516 89.8292 81.5647 89.8423 81.5844 89.8554C81.6303 89.8554 81.6499 89.8292 81.6565 89.7702C81.6958 89.6719 81.722 89.5998 81.7548 89.5342L81.8138 89.4096C81.8335 89.3638 81.8794 89.331 81.9253 89.331C81.9384 89.331 81.9515 89.331 81.9646 89.3375C82.0236 89.3572 82.0564 89.4228 82.0432 89.4883C82.0301 89.5408 81.9646 89.7309 81.9646 89.7309C81.9056 89.9013 81.8597 90.0324 81.8466 90.157L81.8335 90.1635Z" fill="#54D200"/>
<path d="M80.2601 86.9975C80.2863 86.2371 80.2273 86.1125 80.2208 86.106C80.1356 86.0601 80.07 86.0339 80.0045 86.0142C79.9717 86.0011 79.9389 85.9749 79.9324 85.9421C79.9193 85.9093 79.9258 85.87 79.9389 85.8372C79.952 85.8175 79.9586 85.7979 79.952 85.7651C79.9258 85.7389 79.9258 85.7126 79.9324 85.6799C79.9324 85.6405 79.9783 85.6274 80.011 85.6078C80.011 85.5946 80.0504 85.5029 79.7882 85.0571C79.6243 84.7949 79.2506 84.277 79.0671 84.2049C78.9884 84.1721 78.9163 84.159 78.8442 84.1524C78.8049 84.1524 78.7656 84.1262 78.7459 84.0869C78.7262 84.0476 78.7262 84.0017 78.7459 83.9689C78.759 83.9492 78.759 83.9099 78.7459 83.8771C78.6148 83.7919 78.5099 83.7001 78.4181 83.6018C78.2805 83.4707 78.1691 83.3658 78.0445 83.3002C77.8937 83.2281 77.4742 83.0708 77.3234 83.0511C77.3234 83.0511 77.2513 83.0511 77.2448 83.0511C77.0416 83.0511 76.917 83.1036 76.7794 83.1626C76.7597 83.1691 76.74 83.1757 76.7204 83.1757C76.6811 83.1757 76.6483 83.1626 76.6286 83.1363C76.5958 83.097 76.5696 83.0446 76.6024 82.9987C76.6024 82.9659 76.6024 82.9004 76.6286 82.8741C76.6483 82.8479 76.6811 82.8086 76.7204 82.8086H76.7335C76.7794 82.8086 76.8253 82.8086 76.8711 82.8086C76.8711 82.802 76.9039 82.7496 76.9105 82.743C76.9236 82.7102 76.9564 82.6906 76.9891 82.6775C76.9957 82.6775 77.0088 82.6775 77.0154 82.6775C77.0416 82.6775 77.0678 82.684 77.0875 82.7037C77.1858 82.7824 77.2972 82.8151 77.4021 82.8151L77.4873 82.9266L77.4677 82.8086C77.3497 82.625 77.1334 82.4021 76.8777 82.4021C76.858 82.4349 76.8056 82.4611 76.7597 82.4611C76.7204 82.4611 76.6679 82.4415 76.6417 82.4087L76.5827 82.3235C76.4385 82.1727 76.3336 82.1727 76.2025 82.1727C76.1632 82.1727 76.1108 82.1727 76.0518 82.1661L75.9665 82.1399C75.9076 82.1203 75.8617 82.1071 75.8092 82.1006H75.6978C75.4815 82.1006 75.2914 82.1334 75.0882 82.1727C74.9505 82.1989 74.8129 82.2186 74.6752 82.2317L74.6162 82.3169C74.5965 82.3562 74.5572 82.3759 74.5113 82.3759C74.4982 82.3759 74.4851 82.3759 74.472 82.3759C74.4196 82.3563 74.3868 82.3562 74.3409 82.3562C74.2753 82.3562 74.2032 82.3759 74.0918 82.4153C74.0918 82.507 74.2753 82.743 74.4851 82.9528C74.5048 82.9659 74.5703 82.9987 74.7145 83.0118C74.7735 83.0183 74.8194 83.0708 74.8194 83.1298C74.8194 83.156 74.8129 83.1822 74.7997 83.2019C74.8456 83.2937 75.2258 83.6477 75.3831 83.7067C75.4159 83.7198 75.4421 83.746 75.4553 83.7788C75.4553 83.7788 75.5601 83.8968 75.5667 83.9033C75.5864 83.9296 75.6126 83.9492 75.6388 83.9755C75.9338 84.2311 76.2025 84.4933 76.6089 84.9063C76.6483 84.9457 76.6876 84.9915 76.7204 85.0309L76.7663 85.0833C76.8384 85.162 76.9039 85.2341 76.9957 85.3193L77.1727 85.5029C77.2841 85.6143 77.3956 85.7323 77.5398 85.8044C77.5529 85.7585 77.6184 85.7192 77.6643 85.7192C77.7168 85.7192 77.7757 85.7454 77.7954 85.7913C78.0314 86.342 78.4313 86.7287 78.8573 87.1286L79.1785 87.4433L79.3883 87.6596C79.5194 87.8038 79.6636 87.9677 79.8406 88.1054C79.8406 88.1054 79.8668 88.125 79.8799 88.125C80.1159 88.2889 80.1946 88.3217 80.2208 88.3217C80.2798 88.0988 80.247 87.9022 80.2208 87.7186C80.1946 87.5351 80.1749 87.3908 80.188 87.2532C80.2273 87.1286 80.247 87.0696 80.247 87.0172L80.2601 86.9975ZM75.4749 83.1757C75.4553 83.215 75.4094 83.2347 75.37 83.2347C75.3635 83.2347 75.3504 83.2347 75.3438 83.2347L75.2848 83.2216C75.2455 83.2085 75.2127 83.1822 75.1996 83.1363C75.1931 83.1036 75.1996 83.0708 75.2127 83.0446C75.2193 83.0249 75.2324 83.0052 75.252 82.9921C75.2717 82.979 75.2979 82.9659 75.3242 82.9659C75.3373 82.9659 75.3504 82.9659 75.3635 82.9659C75.3831 82.9659 75.4487 83.0118 75.4618 83.0249C75.5011 83.0642 75.5077 83.1232 75.4815 83.1691L75.4749 83.1757ZM75.9272 83.3592C75.9272 83.3592 75.8748 83.3723 75.8486 83.3723C75.8223 83.3723 75.8027 83.3723 75.7896 83.3592C75.7699 83.3461 75.7371 83.3265 75.724 83.3133C75.6978 83.274 75.6978 83.215 75.724 83.1757C75.7502 83.1429 75.783 83.1232 75.8223 83.1232C75.8289 83.1232 75.8354 83.1232 75.842 83.1232C75.901 83.1232 75.9797 83.1691 75.9862 83.2281C75.9928 83.2871 75.9862 83.3461 75.9338 83.3658L75.9272 83.3592ZM78.0773 84.808C78.0576 84.9063 78.038 84.9325 77.9527 84.9784C77.0809 85.4177 76.4516 84.1721 76.6352 83.4313C77.4939 83.2543 78.2346 83.9099 78.0773 84.808Z" fill="#54D200"/>
<path d="M80.2536 84.2181C80.0767 83.9887 79.7227 83.7003 79.4277 83.5429C79.3163 83.4708 79.2114 83.4118 79.1 83.4053C79.0868 83.4053 79.0803 83.4118 79.0737 83.4184C79.1917 83.5626 79.3163 83.6675 79.4343 83.7789L79.4998 83.8379C79.6702 83.9887 79.8407 84.1526 79.9783 84.3165C80.0373 84.3886 80.0898 84.4738 80.1422 84.5525C80.2274 84.6901 80.2995 84.8016 80.3979 84.8868C80.47 84.5853 80.4306 84.4476 80.2536 84.2247V84.2181Z" fill="#54D200"/>
<path d="M58.4122 58.4355V111.994H81.9449C82.5611 111.994 83.1183 111.6 83.3084 111.01C83.3936 110.748 83.4395 110.466 83.4985 110.171C83.6427 109.339 83.7017 102.272 83.7607 101.446L83.8066 100.764C83.8459 100.128 83.4198 99.1384 82.9478 98.7647C82.6856 98.5549 82.3382 98.4632 82.0301 98.3845C81.7745 98.3124 81.5516 98.2468 81.3484 98.1419C81.2632 98.1026 81.1911 98.0436 81.119 97.9912C80.9617 97.8666 80.824 97.7683 80.6339 97.7683C80.6011 97.7683 80.5552 97.7552 80.5356 97.7224C80.5094 97.6962 80.4962 97.6568 80.5028 97.6241C80.2472 97.2897 79.69 97.0406 79.2573 97.0406H79.2442C79.2049 97.0406 79.1721 97.0406 79.1262 97.0406C79.0214 97.0537 78.8575 97.1193 78.687 97.2111C78.6674 97.2176 78.6477 97.2242 78.628 97.2242C78.5953 97.2242 78.5691 97.2111 78.5428 97.1914C78.5035 97.1521 78.497 97.0996 78.5166 97.0472C78.4707 97.021 78.4445 96.9423 78.4642 96.8899C78.4773 96.8374 78.5297 96.7915 78.5822 96.7915C78.7002 96.7981 78.7657 96.7981 78.8313 96.7981C78.8968 96.7981 78.9624 96.7981 79.0541 96.7915H79.1852L79.3229 96.785C79.9456 96.785 80.3455 97.0537 80.7388 97.316C80.9944 97.4864 81.2894 97.6765 81.6434 97.7879C81.7089 97.8076 81.7745 97.8207 81.84 97.8338C81.9842 97.8666 82.0629 97.8797 82.135 97.9191L81.8728 97.4405C81.6958 97.2701 81.5188 97.0669 81.3353 96.8505C80.7453 96.1688 80.1161 95.4411 79.3688 95.3624C79.2508 95.3493 79.0869 95.3428 78.9165 95.3428C78.746 95.3428 78.5756 95.3493 78.4642 95.3624C78.0446 95.4083 77.6513 95.5919 77.2187 95.8082L77.1532 95.841C76.7336 96.0376 76.3338 96.2277 75.8946 96.2605C75.8225 96.2671 75.7307 96.2671 75.6324 96.2671C75.4685 96.2671 75.285 96.2736 75.108 96.2933C75.108 96.2933 75.1014 96.2933 75.0949 96.2933C75.049 96.2933 75.0097 96.2671 74.9834 96.2277C74.9638 96.1819 74.9703 96.1229 75.0031 96.0901C74.9965 96.0639 75.0031 96.0245 74.99 96.0049C74.9703 95.959 74.9834 95.9065 75.0162 95.8738C75.0424 95.8475 75.0686 95.8344 75.1014 95.8344C75.1145 95.8344 75.1276 95.8344 75.1473 95.841C75.3702 95.9262 75.5537 95.9852 75.7897 95.9852C75.9274 95.9852 76.0519 95.9655 76.1896 95.9328C76.3534 95.8869 76.4977 95.8148 76.6681 95.723C76.8451 95.6312 76.9827 95.5657 77.1335 95.5198C77.1597 95.4542 77.1597 95.428 77.1597 95.4018C77.1597 95.3559 77.1728 95.31 77.2056 95.2838C77.2253 95.2707 77.2515 95.2575 77.2777 95.2575C77.2974 95.2575 77.317 95.2575 77.3301 95.2707H77.3367C77.4744 95.2707 77.6513 95.2051 77.9201 95.1002C78.0315 95.0543 78.1299 95.015 78.1954 94.9953C78.4838 94.9101 78.6936 94.8708 78.8706 94.8642C78.7395 94.6544 78.4904 94.5037 78.261 94.3857C77.5465 93.9989 76.7926 93.8088 75.9405 93.8088C74.6885 93.8088 73.4692 94.2349 72.5449 94.602L72.4532 94.6413C72.4401 94.6413 72.427 94.6479 72.4073 94.6479C72.3614 94.6479 72.3155 94.6217 72.2959 94.5692C72.2696 94.5102 72.2958 94.4381 72.3614 94.4119L72.4532 94.3726C72.5843 94.3136 72.7023 94.248 72.8268 94.1628C72.8268 94.13 72.8334 94.0841 72.8596 94.0579C72.8858 94.0317 72.9186 94.0054 72.9579 94.0054H73.03C73.1611 94.0054 73.2922 93.9792 73.4233 93.9464L73.502 93.9268L73.6659 93.8809L74.9113 93.4745C74.7999 93.3696 74.6885 93.3696 74.5967 93.3696H74.3541C74.1837 93.3499 74.0329 93.3302 73.8822 93.304L73.3447 93.2319C72.6498 93.1336 71.9288 93.0352 71.2143 93.0025C71.1159 92.9631 71.0832 92.95 71.0504 92.95C70.9914 92.9631 70.9324 92.9894 70.8472 93.0352C70.8275 93.0418 70.8078 93.0484 70.7882 93.0484C70.7685 93.0484 70.7423 93.0484 70.7292 93.0287C70.6899 93.009 70.6702 92.9697 70.6702 92.9238C70.408 92.8714 70.1851 92.8255 69.9622 92.773C69.8443 92.7468 69.7197 92.714 69.6017 92.7009L69.4247 92.6681C69.0052 92.596 68.448 92.5042 68.0875 92.5042C68.0219 92.5042 67.9564 92.5043 67.9039 92.5174C67.8515 92.5174 67.7794 92.5501 67.6876 92.596C67.668 92.6026 67.6483 92.6091 67.6286 92.6091C67.609 92.6091 67.5828 92.6091 67.5696 92.5895C67.5303 92.5698 67.5106 92.5305 67.5106 92.4846C67.5106 92.4518 67.5303 92.4059 67.5565 92.3862C67.4713 92.3076 67.3795 92.2814 67.2943 92.2551L67.2222 92.2289C67.1894 92.2158 67.1567 92.2027 67.1239 92.1896C67.0125 92.124 66.9076 92.0454 66.8027 91.9601L66.7306 91.9077C66.5012 91.7176 66.3111 91.5734 66.0816 91.5144C66.0226 91.5013 65.9833 91.4488 65.9899 91.3898C65.9899 91.3308 66.0358 91.2849 66.0948 91.2784C66.1079 91.2391 66.1406 91.1997 66.18 91.1866C66.1996 91.1866 66.2193 91.1735 66.239 91.1735C66.2586 91.1735 66.2848 91.1735 66.3045 91.1932C66.3635 91.239 66.4356 91.2915 66.4946 91.3439C66.8224 91.6193 67.1501 91.8946 67.5631 92.0126C67.5631 92.0126 68.1072 92.1109 68.1465 92.1175C67.8187 91.7635 67.5959 91.3702 67.373 90.9899C67.255 90.7867 67.1436 90.5901 67.0125 90.3999L66.9076 90.3737L66.8289 90.3606C66.7765 90.3541 66.7371 90.3147 66.7306 90.2688C66.7175 90.2229 66.7371 90.1705 66.783 90.1443C66.7961 90.0656 66.7568 90.0263 66.7175 89.987C66.4356 89.6657 65.9047 89.1741 65.6359 89.1085C65.5703 89.0954 65.5048 89.0889 65.4196 89.0889C65.3737 89.0889 65.3016 89.0561 65.2819 89.0102C65.2623 88.9643 65.2491 88.9119 65.2819 88.8791L65.1508 88.8004C65.1049 88.7742 65.0787 88.7152 65.0918 88.6628C65.1049 88.6103 65.1508 88.571 65.2098 88.571C65.2033 88.5185 65.2295 88.4464 65.2754 88.4202C65.3016 88.4071 65.3278 88.4005 65.354 88.4005C65.3802 88.4005 65.3999 88.4071 65.413 88.4268C65.6556 88.6693 65.9047 88.8856 66.1537 89.0954C66.3897 89.2986 66.6257 89.4953 66.8486 89.7116L67.2026 90.1639L67.2484 90.0853C67.2484 90.0197 67.3009 89.9673 67.3599 89.9673C67.3599 89.9673 67.3599 89.9673 67.3664 89.9673C67.4254 89.9673 67.4779 90.0132 67.4844 90.0722C67.5959 90.8982 67.9171 91.5078 68.4611 91.9339C68.8675 92.242 69.5099 92.3404 70.1458 92.3928H70.1589C70.1589 92.3469 70.1851 92.3207 70.231 92.301C70.2376 92.301 70.2507 92.301 70.2572 92.301C70.2966 92.301 70.3293 92.3273 70.3555 92.3535C70.4408 92.4387 70.5588 92.4911 70.7161 92.5108C70.8931 92.5305 71.0832 92.537 71.2733 92.5436C71.4306 92.5501 71.5879 92.5567 71.7321 92.5764C71.7321 92.5764 71.7911 92.5829 71.8173 92.5895C71.8173 92.5895 71.896 92.6091 71.9025 92.6091C71.9615 92.6288 72.0205 92.6485 72.0861 92.6485C72.1254 92.6485 72.1516 92.6485 72.1844 92.6354L72.1123 92.5108C71.5879 91.9339 70.9324 91.2259 70.1523 90.8785C70.0475 90.8392 69.936 90.7933 69.8311 90.7474C69.7721 90.7212 69.7459 90.6556 69.7656 90.5966C69.7853 90.5507 69.8311 90.5179 69.877 90.5179C69.8901 90.5179 69.9032 90.5179 69.9098 90.5179C69.9885 90.5376 70.054 90.5638 70.1327 90.5966C70.1523 90.5966 70.1589 90.5769 70.1851 90.5179C70.1982 90.4786 70.231 90.4458 70.2703 90.4393C70.2769 90.4393 70.29 90.4393 70.2966 90.4393C70.3293 90.4393 70.3621 90.4524 70.3818 90.4721C70.5391 90.6294 70.6964 90.7736 70.8406 90.8982L70.8537 90.9113C70.8537 90.9113 70.8931 90.8785 70.9193 90.8719C70.9258 90.8719 70.939 90.8719 70.9455 90.8719C70.9914 90.8719 71.0307 90.8982 71.0504 90.9375C71.1618 91.1604 71.3126 91.298 71.4961 91.4816C72.1779 92.1044 72.6105 92.3797 72.8596 92.5108C73.4168 92.7861 74.0526 92.8189 74.6622 92.8451C74.8982 92.8517 75.108 92.8582 75.3112 92.8845L75.4161 92.9172C75.4554 92.9304 75.4751 92.9369 75.5013 92.9435L75.8094 92.9631C75.9536 92.9697 76.1043 92.9762 76.2486 93.0025L75.4554 92.2945L75.0293 91.888L74.7212 91.8159C74.6688 91.8028 74.6295 91.7569 74.6295 91.6979C74.6295 91.6389 74.6688 91.593 74.7212 91.5799C74.6032 91.4292 74.5115 91.3243 74.4197 91.2063C74.0919 90.8195 73.7249 90.3737 73.266 90.1705C73.1742 90.1312 73.0825 90.1049 72.9776 90.0722C72.9382 90.0591 72.9055 90.0263 72.8924 89.987C72.8793 89.9476 72.8924 89.9017 72.9251 89.869C72.7678 89.6788 72.6892 89.4953 72.6105 89.3052C72.6105 89.3052 72.5843 89.2527 72.5843 89.2462C72.5056 89.0561 72.4335 88.8725 72.2893 88.7021C72.2631 88.6693 72.25 88.6234 72.2696 88.5841C72.2827 88.5448 72.3155 88.512 72.3614 88.5054C72.3876 88.4858 72.3942 88.4726 72.3942 88.4333C72.3942 88.3678 72.4401 88.3219 72.5056 88.3153C72.5056 88.3153 72.5122 88.3153 72.5187 88.3153C72.5777 88.3153 72.6236 88.3546 72.6367 88.4136C72.6826 88.63 72.7285 88.8463 72.7744 88.984C72.9448 89.5019 73.3709 89.9345 73.9739 90.1836C74.0002 90.1574 74.0395 90.1443 74.0788 90.1443C74.0919 90.1443 74.105 90.1443 74.1116 90.1443C74.1575 90.1574 74.2034 90.1902 74.2099 90.2361C74.2296 90.3737 74.2886 90.4983 74.3804 90.6163C74.4525 90.7015 74.5377 90.7867 74.6295 90.8654L74.6819 90.9178C74.7802 91.0096 74.872 91.0948 74.9572 91.1932C74.9769 91.1407 75.0424 91.1014 75.0949 91.1014C75.1473 91.1014 75.2194 91.1276 75.2325 91.18C75.2784 91.3374 75.3243 91.4619 75.3702 91.5406C75.5472 91.8421 76.2289 92.3404 77.2449 92.9238C77.3301 92.9762 77.3695 93.0025 77.4285 93.0025L77.4809 92.9369L77.4219 92.773C77.4023 92.714 77.435 92.6485 77.494 92.6222C77.5071 92.6222 77.5202 92.6157 77.5399 92.6157C77.5858 92.6157 77.6317 92.6419 77.6513 92.6878C77.7366 92.8714 77.8218 93.009 77.9201 93.1336C78.1823 93.4548 78.5166 93.6252 78.8968 93.8022C78.9689 93.8416 79.2573 93.9792 79.3229 94.0186C79.7949 94.2939 80.2013 94.543 80.5618 94.7921C80.6142 94.7593 80.5946 94.6872 80.529 94.4971L80.4766 94.3201C80.4569 94.2087 80.4504 94.1103 80.4438 94.012L80.4307 93.8809C80.4176 93.5925 80.3914 93.3171 80.2865 93.0615C80.2275 92.9369 80.1161 92.7927 79.9325 92.6091C79.8866 92.5633 79.8866 92.4977 79.926 92.4453C79.9522 92.419 79.985 92.3994 80.0177 92.3994C80.0439 92.3994 80.0636 92.4059 80.0833 92.419C80.1554 92.4649 80.2603 92.5174 80.3062 92.5174C80.3193 92.5108 80.3389 92.5042 80.352 92.5042C80.3717 92.5042 80.3914 92.5042 80.411 92.5239C80.4438 92.5436 80.4635 92.5829 80.47 92.6222C80.47 92.6944 80.4831 92.7534 80.4963 92.8189C80.5028 92.8779 80.5421 92.9369 80.5815 93.0025C80.647 93.1139 80.6863 93.1926 80.706 93.245C80.7912 93.5007 80.8306 93.717 80.8764 93.9333C80.9682 94.425 81.0469 94.8445 81.4205 95.31C81.8728 95.8934 82.902 96.9554 83.5509 97.4471C83.7476 97.5913 83.8262 97.6044 83.8459 97.6044C83.8459 97.4405 83.8262 97.3094 83.8 97.1717L83.7607 96.9751C83.741 96.8702 83.7213 96.7653 83.6886 96.6539C83.4526 95.7558 82.8626 94.838 82.2858 93.953C81.9974 93.5072 81.7155 93.0746 81.4926 92.6681C80.9682 91.7242 80.6142 90.6949 80.3783 89.4232L79.1262 88.2891C79.1262 88.2891 79.0935 88.2432 79.0869 88.217C78.6018 88.04 78.0643 87.8368 77.5071 87.8368C77.3105 87.8368 77.1335 87.8564 76.9696 87.9023C76.9565 87.9023 76.95 87.9023 76.9368 87.9023C76.9237 87.9023 76.9106 87.9023 76.9041 87.9023L76.3666 88.0859C76.3666 88.0859 76.3141 88.1186 76.2813 88.1186C76.2813 88.1186 76.2682 88.1186 76.2617 88.1186C76.2223 88.1186 76.1896 88.0859 76.1699 88.0531L76.1109 88.0269C76.0519 88.0334 75.9864 88.04 75.9142 88.04C75.6127 88.04 75.3112 87.9482 74.99 87.8499L74.8851 87.9416C74.9375 88.5906 74.7212 89.2331 74.0723 89.5871L74.0264 87.9679L73.7183 89.6723C72.3024 88.5972 73.1742 87.332 74.3279 86.5257C74.5115 86.7682 74.6557 87.0501 74.754 87.3451C74.7671 87.3451 74.7802 87.3385 74.7868 87.3385C74.813 87.3385 74.8327 87.3385 74.8523 87.3582C74.8851 87.3844 74.9113 87.4172 74.9375 87.4434C75.1014 87.6139 75.1408 87.6532 75.6127 87.7122C75.6258 87.7122 75.6848 87.7384 75.6914 87.7384C75.7635 87.7712 75.8028 87.7843 75.829 87.7843C75.8421 87.7843 75.8815 87.7647 75.8946 87.7515C75.9143 87.7188 75.947 87.686 75.9864 87.6794C75.9929 87.6794 76.006 87.6794 76.0126 87.6794C76.0454 87.6794 76.0716 87.686 76.0912 87.7122C76.1109 87.7122 76.1502 87.7253 76.2223 87.7253C76.3862 87.7253 76.537 87.6729 76.6156 87.5942C76.6419 87.568 76.6681 87.5614 76.7009 87.5614C76.7336 87.5614 76.7599 87.5745 76.7861 87.5942H76.7926C76.9565 87.5942 77.0811 87.5614 77.1794 87.5352L77.258 87.5155C77.3301 87.4959 77.3957 87.4762 77.4481 87.4762C77.4481 87.4762 77.5792 87.4697 77.6055 87.4697C77.7169 87.4697 77.8349 87.4828 77.9463 87.4959L78.0578 87.509C78.1758 87.5221 78.2806 87.5418 78.379 87.5483C78.3462 87.45 78.2937 87.3779 78.2347 87.2992C78.1233 87.1288 77.9988 86.978 77.8742 86.9583C77.8349 86.9583 77.789 86.9452 77.7693 86.9124C77.7431 86.8862 77.7234 86.8469 77.7366 86.8076C77.7562 86.7158 77.7169 86.6699 77.6645 86.6109C77.2777 86.1979 76.95 85.9947 76.5763 85.9422C76.5239 85.9357 76.4845 85.8963 76.478 85.8439C76.4649 85.7915 76.4911 85.7456 76.537 85.7128C76.1109 85.4047 75.6062 85.267 75.0949 85.267C74.5574 85.267 74.0067 85.4178 73.4954 85.7062L73.2988 85.8242C73.2988 85.8242 73.2594 85.8439 73.2398 85.8439C73.207 85.8439 73.1742 85.8308 73.1546 85.8046C73.1152 85.7652 73.1087 85.6997 73.1415 85.6538C73.1546 85.6276 73.148 85.5817 73.1415 85.5358C73.0825 85.5161 73.0431 85.5096 72.9907 85.5096C72.8924 85.5096 72.794 85.5292 72.7023 85.5489C72.6302 85.562 72.5581 85.5817 72.4859 85.5817C72.4204 85.5882 72.3417 85.5882 72.2631 85.5882C72.0074 85.5882 71.7452 85.5751 71.4765 85.5489C71.2077 85.5292 70.9455 85.503 70.6767 85.503C70.4801 85.503 70.3031 85.5161 70.1327 85.5358H70.1196C70.0802 85.5358 70.0409 85.5161 70.0147 85.4768C69.9885 85.4375 69.9885 85.385 70.0147 85.3457L70.0278 85.2801C69.9229 85.2605 69.8639 85.2605 69.7918 85.2605C69.6279 85.2605 69.4641 85.2801 69.274 85.3326C69.2674 85.3326 69.2543 85.3326 69.2477 85.3326C69.1953 85.3326 69.1494 85.2998 69.1363 85.2539C69.1166 85.1949 69.1363 85.1294 69.1953 85.1031L69.3002 85.0507L69.0314 84.8671C68.9724 84.8409 68.9462 84.7688 68.9724 84.7098C68.9921 84.6639 69.038 84.6377 69.0839 84.6377C69.097 84.6377 69.1101 84.6377 69.1297 84.6443C69.1691 84.6574 69.2019 84.6639 69.2281 84.6639L69.038 84.3099C69.0118 84.2706 69.0118 84.2247 69.0314 84.1854C69.0511 84.146 69.0904 84.1198 69.1363 84.1198C69.1494 84.1133 69.1691 84.1133 69.1822 84.1133C69.2019 84.1133 69.2281 84.1133 69.2477 84.1264C69.2805 84.1395 69.3133 84.1723 69.3264 84.205C69.3395 84.2378 69.3526 84.2706 69.3657 84.2968L69.5755 84.6574C69.6214 84.6574 69.7 84.7033 69.7197 84.7426C69.7459 84.8081 69.7918 84.854 69.8639 84.8934C70.1196 85.0179 70.7685 85.1752 71.0635 85.2015C71.1094 85.2015 71.1553 85.2015 71.1946 85.2015L71.5355 85.1949C71.5355 85.1949 71.6535 85.2015 71.66 85.2015C71.6797 85.2015 71.719 85.2015 71.7518 85.2146L71.8173 85.2277C71.9288 85.2539 72.0009 85.2736 72.0664 85.2736C72.1844 85.2736 72.2696 85.2211 72.3155 85.1228C72.3286 85.09 72.3548 85.0704 72.3876 85.0573C72.4007 85.0573 72.4138 85.0507 72.427 85.0507C72.4466 85.0507 72.4663 85.0507 72.4794 85.0638C72.4925 85.0638 72.5449 85.1031 72.5515 85.1162C72.5974 85.149 72.6695 85.2015 72.7744 85.2015C72.9514 85.1884 73.1087 85.1687 73.266 85.1425C73.443 85.1163 73.6265 85.0835 73.8166 85.0769L74.3279 84.8934C74.3476 84.8475 74.4 84.8147 74.4525 84.8147C74.4656 84.8147 74.4787 84.8147 74.4918 84.8147C74.5836 84.8475 74.7081 84.8868 74.7868 84.8868C74.8458 84.8737 74.8654 84.8606 74.872 84.854C74.8917 84.8409 74.9113 84.8344 74.931 84.8278C75.0096 84.8213 75.0949 84.8213 75.1735 84.8213H75.7176C75.7176 84.8213 75.7831 84.8409 75.8028 84.8671C75.8225 84.8868 75.8487 84.9065 75.8815 84.9065C75.8946 84.9065 75.947 84.8671 75.9601 84.8409C75.8553 84.7557 75.7963 84.677 75.7307 84.5721C75.6848 84.5 75.6586 84.4673 75.6324 84.441C75.4292 84.2182 74.99 83.7855 74.7278 83.5888C74.6491 83.5233 74.5639 83.4839 74.4918 83.4708C74.4525 83.4708 74.4197 83.4381 74.4066 83.4053C74.3869 83.3725 74.3869 83.3332 74.4066 83.2938C74.4066 83.2938 74.3869 83.2414 74.3804 83.2348C74.3017 83.1496 74.2624 83.1037 74.1772 83.0906C74.1772 83.0906 74.1772 83.0906 74.164 83.0906C74.1509 83.0906 74.1247 83.0906 74.0919 83.0841C74.0395 83.0709 74.0067 83.0316 74.0002 82.9792C74.0002 82.9267 74.0198 82.8808 74.0657 82.8546C73.9871 82.7825 73.9477 82.7432 73.9084 82.6973C73.8101 82.5858 73.7183 82.4941 73.5806 82.4941C73.3119 82.5531 73.0497 82.6514 72.7678 82.7694C72.5515 82.8546 72.3483 82.9202 72.1451 82.9857C72.7809 83.1562 73.3184 83.5692 73.325 84.2116C73.325 84.2116 73.3774 84.205 73.3643 84.2706C73.3578 84.3034 73.266 84.3427 73.2529 84.3624C72.2762 85.3916 70.821 84.205 70.5325 83.1365C70.9127 82.9071 71.4634 82.8481 71.9812 82.9464C71.9747 82.9398 71.9615 82.9267 71.9615 82.9202C71.9419 82.8546 71.9747 82.7891 72.0402 82.7694C72.1254 82.7432 72.2106 82.717 72.2827 82.6776C72.4269 82.6383 72.4859 82.6055 72.4991 82.5203C72.4859 82.5006 72.4335 82.5006 72.3811 82.5006C72.3483 82.5006 72.3221 82.5006 72.2959 82.5006C72.0468 82.5006 71.8042 82.4678 71.5355 82.4023C71.4699 82.3892 71.4306 82.3236 71.4437 82.2581C71.4568 82.1991 71.5027 82.1597 71.5617 82.1597L71.7256 82.186L72.4204 82.245C72.3876 82.127 72.3155 82.0548 72.2434 81.9827C72.1779 81.9303 72.1254 81.8844 72.073 81.8189C72.0402 81.7795 72.014 81.7402 71.9878 81.6943L71.955 81.6419C71.8894 81.5239 71.8108 81.3993 71.719 81.3403C71.719 81.3403 71.7124 81.3403 71.7059 81.3403C71.6469 81.3403 71.6207 81.3075 71.6076 81.2485C71.5945 81.1961 71.6403 81.1436 71.6928 81.1174C71.6928 81.0584 71.7452 81.006 71.7977 80.9929C71.8042 80.9929 71.8173 80.9929 71.8239 80.9929C71.8763 80.9929 71.9222 81.0191 71.9419 81.065C72.2237 81.7336 72.7154 82.1335 73.266 82.1335L73.325 82.0811L72.9776 81.2158C72.9579 81.0846 72.9382 80.9535 72.9251 80.8093C72.9055 80.6323 72.8793 80.4553 72.8465 80.2914C72.8334 80.2455 72.853 80.1997 72.8924 80.1669C72.912 80.1472 72.9382 80.1407 72.9645 80.1407C72.9841 80.1407 73.0038 80.1407 73.0169 80.1538C73.0366 80.1079 73.089 80.0685 73.1415 80.0685C73.148 80.0685 73.1546 80.0685 73.1677 80.0685C73.2267 80.0817 73.266 80.1275 73.2594 80.1865C73.2201 80.5668 73.2005 80.9273 73.3709 81.3862C73.4102 81.5107 73.5806 81.832 73.679 81.9369C73.7183 81.9762 73.7445 81.9959 73.7773 81.9959L74.2099 81.8779C74.2296 81.832 74.282 81.7992 74.3279 81.7992C74.3345 81.7992 74.3673 81.7992 74.3804 81.7992C74.6098 81.7992 74.7409 81.7402 74.8261 81.6222C74.8261 81.6222 74.8917 81.5697 74.931 81.5697C75.0752 81.6287 75.1211 81.6353 75.1342 81.6353C75.1801 81.6353 75.2325 81.6287 75.2915 81.6025C75.3571 81.5829 75.4488 81.5566 75.5341 81.5566C75.5341 81.5566 75.6193 81.5566 75.6324 81.5566C75.6455 81.5435 75.6586 81.5304 75.6783 81.5173C75.6979 81.5107 75.7176 81.5042 75.7373 81.5042C75.7635 81.5042 75.7897 81.5107 75.8094 81.5304C75.8225 81.537 75.8553 81.5632 75.8618 81.5697H75.9208C75.9995 81.5632 76.065 81.5829 76.124 81.6091L76.2092 81.6353H76.2748C76.2748 81.6353 76.3534 81.596 76.3862 81.596C76.419 81.596 76.478 81.596 76.4977 81.6287C76.5566 81.714 76.6025 81.714 76.6222 81.714C76.6353 81.714 76.6681 81.7009 76.6746 81.6877L76.36 81.1043C76.2813 80.9994 76.2355 80.8683 76.1896 80.7372C76.1502 80.6192 76.0978 80.5012 76.0388 80.4094C75.9732 80.3111 75.8618 80.2128 75.7045 80.121C75.652 80.0882 75.6324 80.0292 75.6521 79.9702C75.6717 79.9243 75.7176 79.8916 75.7635 79.8916C75.77 79.8916 75.7766 79.8916 75.7897 79.8916C75.888 79.826 75.8028 79.6162 75.5668 79.2622C75.4751 79.1311 75.3898 79.0131 75.3112 78.9017C75.2719 78.8492 75.2784 78.7706 75.3374 78.7312C75.3571 78.7116 75.3833 78.705 75.4095 78.705C75.4488 78.705 75.4816 78.7247 75.5078 78.7509C75.5275 78.7509 75.5865 78.7378 75.6062 78.7247C75.6062 78.7247 75.6062 78.705 75.6062 78.6722C75.6062 78.6067 75.6521 78.5542 75.7176 78.5542C75.7176 78.5542 75.7242 78.5542 75.7307 78.5542C75.7897 78.5542 75.8421 78.6001 75.8487 78.6526C75.888 78.8951 76.3797 80.1472 76.4255 80.2324C76.4583 80.3045 76.4911 80.3767 76.5567 80.4291C76.6222 80.4291 76.6943 80.4881 76.6943 80.5536C76.6943 80.5536 76.6943 80.6192 76.6943 80.6258C76.6943 80.7372 76.6943 80.7896 76.7074 80.8486C76.773 81.1436 77.2187 81.6484 77.4612 81.9172L77.5202 81.9893C77.5137 81.9303 77.5661 81.8647 77.6251 81.8516C77.6382 81.8516 77.6513 81.8516 77.671 81.8516C77.7169 81.8516 77.7693 81.8713 77.789 81.9106C77.8742 82.0876 78.0053 82.3367 78.1495 82.4416C78.2937 82.5531 78.5953 82.658 78.8903 82.7563C79.1066 82.8284 79.2705 82.8874 79.3884 82.9398C79.4737 82.9792 79.5589 83.0251 79.6441 83.0644L79.7621 83.1234C79.8866 83.1955 80.0112 83.2545 80.1357 83.3135L80.6142 83.6085C80.6011 83.1234 80.4635 82.7628 80.2209 82.4613C80.1816 82.4088 80.1882 82.3367 80.234 82.2974C80.2603 82.2777 80.2865 82.2646 80.3193 82.2646C80.352 82.2646 80.3783 82.2777 80.4045 82.2974C80.4963 82.3826 80.5684 82.481 80.6405 82.5793L80.824 82.8218C80.824 82.8218 80.8371 82.8218 80.8437 82.8218C80.883 82.8218 80.9223 82.7825 80.9944 82.5858C81.0796 82.363 81.0797 82.304 81.0797 82.304C81.0797 82.2581 81.0469 82.1728 81.001 82.0614C80.7978 81.5501 80.0571 80.3767 79.7228 80.0882C79.6048 79.9899 79.4605 79.8981 79.3163 79.8063L79.2442 79.7604C79.1393 79.6949 79.0345 79.6228 78.9427 79.5507C78.7657 79.413 78.5953 79.2557 78.4314 79.0983L78.1299 78.8099C78.084 78.764 78.084 78.6853 78.1299 78.6395C78.1561 78.6132 78.1889 78.6001 78.2151 78.6001C78.2413 78.6001 78.2741 78.6132 78.2937 78.6329C78.5232 78.8361 78.7657 79.059 79.0672 79.2557C79.2115 79.354 79.3032 79.4196 79.3557 79.4196C79.2836 79.2163 79.2115 79.0262 79.1328 78.8099C79.0214 78.5215 78.9099 78.2134 78.6674 78.0232C78.6281 77.9905 78.5625 77.9511 78.4838 77.9052C78.4314 77.8725 78.4052 77.8004 78.438 77.7479C78.4576 77.7086 78.5035 77.6824 78.5428 77.6824C78.5559 77.6824 78.5756 77.6824 78.5887 77.6955L78.7067 77.7479C78.6543 77.5578 78.5887 77.3743 78.5232 77.1841C78.379 76.7908 78.2413 76.4106 78.0053 76.1418C77.9791 76.1156 77.9725 76.0763 77.9791 76.0369C77.9857 75.9976 78.0119 75.9714 78.0446 75.9517C78.0119 75.6239 77.7956 75.3093 77.4481 74.9881C77.4023 74.9422 77.3957 74.8701 77.435 74.8242C77.4612 74.7914 77.494 74.7783 77.5268 74.7783C77.553 74.7783 77.5727 74.7848 77.5989 74.798C77.6776 74.8504 77.7431 74.9028 77.7956 74.9487C77.8152 74.9684 77.848 75.0077 77.8808 75.0471C77.9922 75.1782 78.084 75.2962 78.1495 75.2962C78.1954 75.2962 78.2479 75.3224 78.2741 75.3617C78.2937 75.4011 78.3069 75.447 78.2806 75.4863C78.3593 75.7551 78.438 75.9779 78.5166 76.2008L78.5953 76.4172C78.6543 76.5745 78.7133 76.7384 78.7723 76.8892C78.8181 76.994 78.864 77.0727 78.9099 77.1251C78.9492 77.1645 78.9493 77.23 78.9165 77.2759L79.395 78.5673L79.454 78.5805C79.454 78.5805 79.4868 78.5608 79.4999 78.5477C79.5261 78.5215 79.5589 78.5018 79.5916 78.5018C79.6048 78.5018 79.6179 78.5018 79.631 78.5084C79.6769 78.528 79.7096 78.5739 79.7096 78.6198C79.6638 78.8492 79.6375 79.0066 79.7359 79.2098C80.0636 79.8719 80.6536 80.5799 81.0731 81.0584L81.1583 81.183C81.2173 81.2747 81.2697 81.36 81.3746 81.3928L81.6827 80.239C81.5975 80.1013 81.5188 79.9768 81.4336 79.8522L81.3681 79.7473C81.2697 79.5966 81.178 79.4458 81.0731 79.3212C80.9551 79.177 80.7912 79.0525 80.6601 78.9672C80.6274 78.9476 80.6142 78.9148 80.6077 78.8755C80.6077 78.8427 80.6142 78.8033 80.6405 78.7771C80.6405 78.7247 80.6929 78.6657 80.7453 78.646C80.765 78.646 80.7847 78.6329 80.8109 78.6329C80.8502 78.6329 80.883 78.6395 80.9027 78.6657L81.6631 79.6359C81.6762 79.0721 81.5319 78.5542 81.355 77.9774L81.178 77.3546C81.1452 77.23 81.1255 77.112 81.0993 76.994L81.0665 76.8236C80.9944 76.4499 80.9223 76.109 80.7781 75.7747C80.7519 75.7223 80.7191 75.6436 80.6667 75.6043C80.6339 75.5846 80.6142 75.5453 80.6142 75.5059C80.4766 75.1585 80.2275 74.8701 79.8407 74.6013C79.5195 74.3784 79.2049 74.2342 78.9361 74.1096L78.6084 73.9458C78.5559 73.9195 78.5297 73.8671 78.5428 73.8081C78.5559 73.7556 78.6018 73.7163 78.6608 73.7163L78.7788 73.5983L78.6477 73.6311C78.6084 73.5786 78.6084 73.5065 78.6608 73.4672C78.687 73.4475 78.7133 73.4344 78.746 73.4344C78.7788 73.4344 78.805 73.4475 78.8313 73.4672C79.0672 73.6901 79.336 73.8802 79.5916 74.0638L79.6572 74.1096C80.0964 74.4177 80.4897 74.7062 80.8043 75.0864L81.1976 75.7419C81.2829 75.6502 81.2894 75.5453 81.2697 75.4142C81.2632 75.3617 81.2894 75.3027 81.3419 75.2831C81.3746 75.2699 81.4074 75.2306 81.414 75.2175C81.4467 75.0798 81.473 75.0077 81.5057 74.9291C81.6041 74.6734 81.7024 74.4309 81.4467 74.09C81.3812 74.0047 81.1649 73.8802 80.8961 73.7688C80.8371 73.7425 80.8043 73.677 80.8306 73.618C80.8502 73.5655 80.8961 73.5393 80.942 73.5393C80.9551 73.5393 80.9617 73.5393 80.9748 73.5393L81.1518 73.5918C81.119 73.5393 81.1518 73.4541 81.1911 73.4148C81.2173 73.3951 81.2566 73.3754 81.296 73.3754C81.3222 73.3754 81.3484 73.382 81.3615 73.4016C81.414 73.4541 81.4664 73.5131 81.4926 73.5524L81.8466 74.0638L82.1285 73.1329L82.0826 73.0608C82.0826 73.0608 82.0498 73.0214 82.0367 72.9952C82.017 72.9624 82.017 72.9231 82.0301 72.8838C82.0432 72.851 82.076 72.8248 82.1154 72.8117C82.1481 72.8051 82.194 72.7723 82.2071 72.7592C82.2596 71.9922 82.0957 71.435 81.6827 70.9761C81.6499 70.9433 81.6434 70.8909 81.6631 70.845C81.6827 70.7991 81.7286 70.7729 81.7745 70.7729C81.8073 70.7598 81.84 70.7205 81.8466 70.7008C81.8466 70.6811 81.84 70.6549 81.8073 70.6156C81.7876 70.5959 81.781 70.5697 81.781 70.5369V69.3373C81.7745 69.2979 81.781 69.2455 81.8007 69.2127C81.8269 69.1865 81.8531 69.1472 81.8925 69.1472L82.0826 68.6227C82.1088 68.5113 82.0957 68.4195 82.0367 68.3146C82.017 68.2753 82.0105 68.2294 82.0367 68.1901C82.0564 68.1507 82.0957 68.1311 82.1416 68.1311C82.1547 68.1311 82.2071 68.0983 82.2137 68.0786V67.115C82.2006 67.0494 82.0236 66.6889 81.9843 66.643C81.9646 66.6299 81.9187 66.584 81.8597 66.5512C81.8269 66.5315 81.8073 66.4987 81.8007 66.466C81.8007 66.4266 81.8073 66.3939 81.8335 66.3676L81.8728 66.4004L81.958 66.3414H81.8335C81.8073 66.2955 81.8073 66.2103 81.8466 66.1775C81.8728 66.1513 81.9056 66.1382 81.9318 66.1382C81.9449 66.1382 81.9646 66.1382 81.9777 66.1579C81.9974 66.0136 81.9974 65.8694 82.0367 65.7252C82.0498 65.6728 82.1022 65.6334 82.1547 65.6334C82.1547 65.6334 82.1678 65.6334 82.1743 65.6334C82.2399 65.64 82.2792 65.699 82.2792 65.7645C82.2596 66.0858 82.2792 66.3939 82.3448 66.6561L82.3644 66.7085C82.5545 67.469 82.6201 67.7181 82.4431 68.5506C82.4103 68.7014 82.371 68.8456 82.3251 68.9964C82.2268 69.311 82.135 69.606 82.1612 69.9141C82.1678 69.9141 82.1809 69.9141 82.194 69.9273L82.2923 69.7503C82.312 69.7044 82.3579 69.6781 82.4038 69.6781C82.4169 69.6781 82.4366 69.6781 82.4497 69.6913C82.5087 69.7175 82.5414 69.7896 82.5152 69.8486L82.4628 69.9731C82.548 69.9469 82.6135 69.8945 82.6791 69.8551C82.6988 69.842 82.7184 69.8355 82.7446 69.8355C82.7774 69.8355 82.8167 69.8486 82.8364 69.8814C82.8757 69.9273 82.8692 69.9994 82.8299 70.0453C82.6332 70.2419 82.4169 70.5107 82.371 70.6877C82.2989 70.9302 82.3972 71.2908 82.4955 71.6382C82.5677 71.8939 82.6332 72.1037 82.6463 72.2807C82.6856 72.7789 82.6266 73.3099 82.4693 73.8671C82.4824 73.8671 82.4955 73.8671 82.5087 73.8671C82.5808 73.8671 82.6201 73.8212 82.6529 73.7622C82.8299 73.5196 82.961 73.3164 83.0527 73.1329C83.0724 73.0935 83.1183 73.0673 83.1642 73.0673C83.1838 73.0673 83.1969 73.0673 83.2166 73.0804C83.2756 73.1067 83.3018 73.1722 83.2822 73.2378C83.269 73.2705 83.2625 73.2902 83.2559 73.3164C83.2559 73.3492 83.2428 73.4016 83.2428 73.4475C83.2428 73.5 83.2101 73.5459 83.1642 73.559C83.1314 73.5721 83.0986 73.6376 83.0789 73.677C82.961 73.8474 82.8364 73.9982 82.7184 74.1424L82.6266 74.2604C82.194 74.7783 81.7089 75.3617 81.6303 76.1222C81.5582 76.8629 81.781 77.4988 81.9974 78.115C82.1547 78.5674 82.2923 78.9738 82.3448 79.4261C82.371 79.5769 82.3579 79.7408 82.3513 79.9047C82.3448 80.062 82.3382 80.2128 82.3448 80.3504C82.8626 79.944 83.0789 79.3343 82.9937 78.6395C82.9806 78.5018 82.7053 77.5513 82.6398 77.4333C82.6201 77.3939 82.6201 77.348 82.6398 77.3087C82.6594 77.2694 82.6988 77.2497 82.7446 77.2497C82.7643 77.2497 82.8167 77.2628 82.8364 77.2694L82.8692 77.2563C82.8692 77.2563 82.9282 77.2169 82.9282 77.1973C83.0331 76.8236 83.2756 76.5352 83.505 76.2598L83.5968 76.1484C83.5968 76.1484 83.6558 76.1025 83.6886 76.1025C83.7148 76.1025 83.741 76.109 83.7607 76.1287C83.8131 76.168 83.8262 76.2402 83.7935 76.2926C83.4001 76.8826 83.1117 77.3874 83.1904 78.1019C83.1904 78.174 83.2166 78.2396 83.2428 78.3248L83.2625 78.4035C83.2953 78.528 83.3346 78.6591 83.3018 78.7902L83.4198 78.7247L83.4919 78.646C83.4919 78.646 83.5509 78.6067 83.5837 78.6067C83.6099 78.6067 83.6361 78.6132 83.6623 78.6329C83.7148 78.6722 83.7213 78.7509 83.6755 78.8033C83.4723 79.059 83.3739 79.3212 83.2756 79.6097L83.2363 79.708C83.1838 79.8522 83.1248 79.9899 83.0527 80.1275C82.9872 80.2587 82.8102 80.4881 82.6988 80.6192C82.6463 80.6848 82.5873 80.7503 82.5152 80.8093C82.3513 80.9666 82.1875 81.124 82.1612 81.3731L83.3018 80.8028C83.3018 80.7634 83.328 80.7241 83.3543 80.7044C83.3805 80.6848 83.4133 80.6716 83.4395 80.6716C83.446 80.6716 83.4591 80.6716 83.4657 80.6716L83.4985 80.8093L83.5247 80.6913C83.5771 80.6913 83.6361 80.7241 83.6492 80.7765C83.6623 80.829 83.6492 80.8814 83.6099 80.9076C83.5444 80.9535 83.2822 81.124 83.2297 81.1502L82.9347 81.3665C82.666 81.5632 82.312 81.8123 81.9384 82.0221C81.5057 82.9529 81.355 84.0018 81.2566 84.9917C81.2566 84.9982 81.2435 85.0441 81.237 85.0573C81.2108 85.1359 81.1976 85.1818 81.1911 85.2343C81.1911 85.2736 81.1911 85.3195 81.1911 85.3654V85.444C81.1976 85.4965 81.1976 85.5686 81.1911 85.6341C81.3812 85.4768 81.5647 85.3654 81.7745 85.2408C81.899 85.1687 82.017 85.1031 82.1285 85.0114C82.3055 84.8802 82.3579 84.7819 82.371 84.7229C82.3841 84.6705 82.43 84.6311 82.489 84.6311C82.5087 84.6311 82.5414 84.6115 82.548 84.5984C82.6594 84.5 82.6725 84.4673 82.6725 84.4607C82.6725 84.4345 82.6922 84.4083 82.7184 84.3886C82.7446 84.3624 82.7905 84.3493 82.8299 84.3493C82.8561 84.3493 82.8823 84.3558 82.902 84.3689C82.9478 84.4083 82.9741 84.4673 82.9413 84.5197C82.9413 84.5197 82.9085 84.5787 82.902 84.5787C82.784 84.736 82.7119 84.8475 82.6922 84.913C82.6791 84.9655 82.6332 85.0048 82.5742 85.0048C82.548 85.0048 82.5152 85.031 82.4693 85.09C82.4497 85.1163 82.4431 85.1359 82.4431 85.149C82.43 85.208 82.3841 85.2474 82.3251 85.2474C82.3251 85.2474 82.3055 85.2474 82.2989 85.2474C82.2792 85.2474 82.2596 85.2605 82.253 85.2605C82.1678 85.2932 81.6827 85.6472 81.6106 85.7062C81.5385 85.7652 81.4008 85.8964 81.3419 85.9816C81.2435 86.1192 81.0993 86.4077 81.1518 86.4863C81.2697 86.6174 81.4009 86.7354 81.5254 86.86L81.5778 86.9124C81.8007 87.1288 82.0105 87.3254 82.1678 87.568C82.2333 87.568 82.3317 87.6335 82.3317 87.6991C82.3317 87.7647 82.3841 87.863 82.4628 88.0203C82.6135 88.2891 82.6922 88.453 82.6725 88.5644C82.8364 88.4989 82.902 88.3481 82.9741 88.1973L83.0789 87.9744L83.2232 87.7581C83.3608 87.5811 83.4919 87.391 83.505 87.1681C83.505 86.9387 83.3608 86.4667 83.2887 86.2831C83.2625 86.2241 83.2756 86.1192 83.3346 86.093C83.3608 86.0799 83.3936 86.0668 83.4133 86.0668C83.4329 86.0668 83.4591 86.0799 83.4722 86.1061C83.5181 86.1848 83.564 86.2766 83.5968 86.3487C83.6099 86.3946 83.623 86.4273 83.6296 86.4601L83.6427 86.5257C83.6755 86.6699 83.7082 86.801 83.8197 86.8534L83.9114 86.6109C83.9901 86.3028 84.0688 86.0078 84.1605 85.7456L84.2982 85.4571C84.4948 85.031 84.6718 84.6443 84.6391 84.559C84.6259 84.5263 84.6325 84.4935 84.6391 84.4607C84.6587 84.4083 84.7112 84.3558 84.7702 84.3558C84.7702 84.3558 84.7767 84.3558 84.7833 84.3558C84.8423 84.3624 84.8947 84.3952 84.8947 84.4541V84.6508C84.8881 84.7098 84.8816 84.7623 84.8685 84.8147C84.8488 84.9065 84.7964 85.0507 84.7046 85.2539C84.6063 85.4834 84.5276 85.6604 84.5276 85.7784C84.5538 85.8308 84.5342 85.8701 84.4883 85.9095C84.4883 85.9095 84.4621 85.9357 84.449 85.9947C84.3834 86.1782 84.331 86.3421 84.2785 86.4929L84.2326 86.6371C84.1868 86.7944 84.1409 86.9583 84.0753 87.1222L83.6886 87.8368C83.7279 87.8564 83.7672 87.9154 83.7672 87.9613C83.7672 88.0072 83.7672 88.0662 83.7213 88.0924C83.5444 88.2039 83.3412 88.3481 83.2101 88.6038C83.1576 88.7086 83.0658 88.9643 83.0331 89.0889C82.9806 89.3183 82.9937 89.574 83.0134 89.81C83.02 89.9804 83.0265 90.1312 83.02 90.282C83.02 90.341 83.0003 90.4065 82.9872 90.459C82.9544 90.5966 82.9151 90.7605 83.0593 90.9244L83.1969 90.8261L83.3018 90.7212C83.4723 90.5573 83.6755 90.3606 83.7607 90.1443C83.7869 90.0787 83.7934 90.0591 83.8 90.0394C83.8197 90.0001 83.8656 89.9738 83.9114 89.9738C83.9704 89.9738 84.0557 90.0132 84.0688 90.0656C84.0819 90.1181 84.095 90.1771 84.0425 90.2033C83.9967 90.2557 83.9442 90.3475 83.8983 90.4327C83.859 90.5114 83.8197 90.5901 83.7738 90.6556C83.7279 90.7146 83.6624 90.7933 83.5837 90.8785C83.3477 91.1538 83.1052 91.4488 83.0789 91.6586C83.0658 91.7307 83.0921 91.8421 83.1183 91.9667L83.1379 92.0519L83.1576 92.124C83.2953 92.7927 83.4723 93.2647 83.7148 93.6252C83.7738 93.7039 83.8459 93.7891 83.9246 93.8809L84.0229 93.9989C84.1212 94.1103 84.2326 94.2283 84.3113 94.3529L84.3244 93.5203C84.3375 93.3958 84.4424 93.2516 84.4752 93.2122C84.5014 93.1795 84.5342 93.1663 84.5735 93.1663C84.5932 93.1663 84.6194 93.1663 84.6391 93.186C84.6915 93.2188 84.7112 93.2909 84.6849 93.3433C84.6522 93.422 84.6128 93.5859 84.6456 93.9923C84.6587 94.1562 84.7308 94.9167 85.052 95.4739C85.1045 95.5656 85.1372 95.6115 85.2028 95.6181C85.3404 95.2313 85.5764 94.8839 85.7403 94.6544C85.8583 94.484 86.0222 94.3004 86.1861 94.1103C86.422 93.8547 86.6384 93.6056 86.7563 93.3892C86.9006 93.127 86.9792 92.7599 87.0513 92.3731C87.1038 92.0716 87.1562 91.8487 87.2152 91.6783C87.2152 91.5144 86.9989 91.2391 86.6908 90.8785L86.6187 90.7933C86.5794 90.7408 86.54 90.7015 86.5138 90.6622C86.481 90.6163 86.4548 90.5573 86.422 90.5048L86.4876 90.3737L86.3827 90.4327C86.3368 90.3475 86.2844 90.2557 86.2057 90.1836C86.1664 90.1443 86.1598 90.0722 86.1926 90.0263C86.2188 89.9935 86.2516 89.9738 86.2909 89.9738C86.3106 89.9738 86.3303 89.9738 86.3434 89.987C86.363 89.9804 86.3762 89.9738 86.3958 89.9738C86.4089 89.9738 86.422 89.9738 86.4417 89.9804C86.4745 89.9935 86.4941 90.0197 86.5073 90.0525C86.5531 90.1836 86.6187 90.3409 86.7432 90.4852L87.2218 90.9965L87.2676 89.0889C87.2545 88.9905 86.9464 88.4268 86.894 88.3481C86.8022 88.2432 86.6384 88.1383 86.4876 88.0465C86.4417 88.0203 86.4155 87.9613 86.4286 87.9089C86.4417 87.8564 86.4876 87.8171 86.5466 87.8171L86.2123 87.1288C86.1336 86.9583 86.0877 86.7813 86.0418 86.5847C85.9894 86.3749 85.9435 86.211 85.8845 86.0799C85.8649 86.0275 85.8452 85.9685 85.8059 85.9422C85.7731 85.916 85.7534 85.8701 85.76 85.8308C85.7796 85.6997 85.6879 85.4768 85.5568 85.1818C85.4978 85.0441 85.4322 84.9065 85.4126 84.8213C85.406 84.7885 85.3929 84.7229 85.3863 84.6377C85.3798 84.5394 85.3732 84.4673 85.3601 84.4017C85.347 84.3362 85.3863 84.2771 85.4519 84.264C85.4584 84.264 85.4715 84.264 85.4781 84.264C85.5305 84.264 85.5764 84.2968 85.5961 84.3493C85.6092 84.3886 85.6158 84.4279 85.6354 84.4476C85.6616 84.4804 85.6682 84.5263 85.6551 84.5656C85.6223 84.6508 85.7665 84.972 85.9566 85.3916C85.9566 85.3916 86.0549 85.621 86.0615 85.6472C86.2188 86.0668 86.3499 86.4863 86.4351 86.8534L86.5466 86.8797C86.5466 86.8797 86.5925 86.8272 86.599 86.8076C86.599 86.7551 86.6056 86.7027 86.6252 86.6502C86.6449 86.5978 86.6908 86.565 86.7432 86.565C86.7563 86.565 86.7629 86.565 86.776 86.565C86.835 86.5781 86.8743 86.6437 86.8678 86.7027C86.8547 86.7617 86.8547 86.8338 86.8678 86.8993C86.8678 86.9649 86.8678 87.0173 86.8612 87.0567C86.8612 87.0632 86.835 87.1288 86.835 87.1353C86.8153 87.1812 86.8088 87.2074 86.8088 87.2337C86.8088 87.4434 86.9989 87.6991 87.1431 87.8892L87.2021 87.9679C87.2349 88.0138 87.2676 88.0531 87.2873 88.0924C87.3135 88.1318 87.3332 88.1842 87.3594 88.2367C87.425 88.4005 87.484 88.5316 87.6019 88.6038C87.6478 88.4005 87.7396 88.2301 87.8314 88.0793L87.8641 88.0072C87.91 87.9154 87.9559 87.8237 87.9821 87.7319C87.9821 87.6925 88.0018 87.6335 88.0411 87.6139C88.0674 87.6008 88.1001 87.5811 88.1264 87.5811C88.1395 87.5811 88.1526 87.5811 88.1591 87.5877C88.1591 87.5549 88.1788 87.4893 88.1985 87.4631C88.2837 87.3451 88.4148 87.2271 88.559 87.0829C88.8802 86.7813 89.1752 86.506 89.1752 86.388C89.1752 86.0733 88.6966 85.6997 88.2443 85.3785L88.1395 85.2998C88.0936 85.267 88.0477 85.2342 88.0149 85.208C88.0018 85.2146 87.9821 85.2211 87.9625 85.2211C87.9166 85.2211 87.8707 85.2015 87.8445 85.1621L87.7527 85.0245C87.7003 85.0179 87.6413 84.9655 87.6282 84.913C87.6282 84.913 87.6216 84.8803 87.5888 84.8409C87.5495 84.795 87.5495 84.7295 87.5888 84.6901C87.6151 84.6574 87.6478 84.6443 87.6806 84.6443C87.7003 84.6443 87.7199 84.6443 87.733 84.6574C87.7593 84.6705 87.7855 84.6836 87.8052 84.6901C87.8445 84.7033 87.8773 84.736 87.8838 84.7754L89.0834 85.6538C89.0965 85.1818 89.0441 84.5853 88.9457 83.9822C88.9261 83.8576 88.6573 82.4285 88.4017 82.1139C88.2771 81.9565 87.9494 81.7533 87.6609 81.5763C87.4905 81.4714 87.3594 81.3927 87.2676 81.3272C87.248 81.3141 87.2152 81.2879 87.1824 81.2485C87.1365 81.2026 87.1103 81.1764 87.0841 81.1502L86.835 80.9929C86.7826 80.9601 86.7432 80.8749 86.776 80.8159C86.8022 80.7765 86.835 80.7438 86.8743 80.7438C86.8874 80.7438 86.9006 80.7438 86.9137 80.7569C86.9333 80.7569 86.953 80.7503 86.9727 80.7503C87.0054 80.7503 87.0382 80.7569 87.0579 80.7831C87.189 80.9339 87.4774 81.0978 87.7396 81.2354L87.8641 81.301C88.0018 81.3796 88.0936 81.419 88.1329 81.419C88.1722 81.2157 88.0674 81.1043 87.9428 80.9994C87.8969 80.9601 87.851 80.9208 87.8117 80.8683C87.5036 80.4881 87.3725 80.1997 87.2283 79.885L87.1759 79.7604C87.1038 79.6031 87.0317 79.4327 86.9333 79.2426C86.9268 79.2294 86.7301 78.941 86.7301 78.941C86.6973 78.8951 86.7039 78.8296 86.7432 78.7902C86.7695 78.764 86.7957 78.7509 86.8285 78.7509C86.8481 78.7509 86.8743 78.7509 86.8874 78.7706C86.9137 78.7706 86.9333 78.7706 86.953 78.7706C87.0251 78.7706 87.0382 78.7443 87.0448 78.7247C87.0579 78.5411 87.0841 78.3641 87.1038 78.1937L87.1169 78.0954C87.1496 77.8069 87.1693 77.6758 87.0907 77.348C87.0251 77.0596 86.8874 76.758 86.6908 76.4499C86.658 76.3975 86.6711 76.3188 86.7236 76.2861C86.7432 76.2729 86.7695 76.2664 86.7957 76.2664C86.835 76.2664 86.8678 76.2861 86.894 76.3123C87.0907 76.5745 87.3266 76.8957 87.4184 77.2497C87.4315 77.2563 87.4512 77.2628 87.4643 77.2628C87.5036 77.2628 87.5364 77.2366 87.5692 77.1579C87.5888 77.112 87.6544 77.0465 87.7134 77.0465C87.7134 77.0465 87.7199 77.0465 87.7265 77.0465C87.7855 77.0596 87.8445 77.0661 87.8445 77.1251V77.1973C87.8445 77.1973 87.8838 77.2563 87.8773 77.2956C87.8773 77.3349 87.8445 77.3611 87.8117 77.3808L87.7396 77.4201C87.6741 77.525 87.3791 78.5411 87.3594 78.6591C87.2939 79.2426 87.4512 79.7998 87.792 80.2128C87.851 80.3045 87.8773 80.3308 87.9363 80.3308C87.9756 80.3308 88.0084 80.3242 88.0149 80.3242C87.9166 80.18 87.9428 80.1013 87.969 79.9899C87.9887 79.9374 88.0018 79.8981 88.0018 79.8653L88.0149 79.6162C88.0149 79.413 88.0215 79.2426 88.0739 79.0328C88.1264 78.7968 88.2116 78.5542 88.2968 78.2986L88.3492 78.1478C88.559 77.5578 88.7688 76.9547 88.7229 76.3123C88.7229 76.2992 88.7098 76.2598 88.6901 76.2402C88.6704 76.2205 88.6573 76.1877 88.6573 76.1549V76.0435C88.6639 75.9452 88.6573 75.8599 88.6573 75.7878C88.5655 75.3027 88.1853 74.8438 87.8445 74.444L87.7527 74.3325C87.5757 74.1227 87.4119 73.9261 87.2939 73.7163C87.2414 73.6245 87.189 73.5065 87.13 73.382C87.1038 73.323 87.13 73.2574 87.189 73.2246C87.2086 73.2181 87.2218 73.2115 87.2414 73.2115C87.2807 73.2115 87.3266 73.2312 87.3463 73.2705C87.4184 73.3951 87.6085 73.7032 87.8445 73.8999C87.8707 73.8081 87.8445 73.7425 87.8314 73.677L87.7789 73.5C87.7462 73.3951 87.7199 73.2902 87.7068 73.1919C87.6675 72.8051 87.7003 72.261 87.7789 71.8349C87.7986 71.7235 87.8314 71.612 87.8641 71.5137L87.8838 71.4547C87.9887 71.1269 88.0936 70.8188 87.851 70.4648C87.6741 70.2091 87.4708 70.0256 87.307 69.901C87.2545 69.8617 87.248 69.7896 87.2807 69.7371C87.307 69.7044 87.3397 69.6847 87.3791 69.6847C87.3987 69.6847 87.425 69.6847 87.4446 69.7044C87.5823 69.7896 87.7068 69.8748 87.7855 69.96C87.7789 69.901 87.8379 69.8355 87.8904 69.8158C87.9035 69.8158 87.9166 69.8158 87.9297 69.8158C87.9821 69.8158 88.0346 69.8355 88.0477 69.8814L88.1264 70.0715C88.205 69.6978 88.1001 69.3504 87.9953 69.0095C87.9232 68.7866 87.8641 68.5899 87.8248 68.3998C87.7855 68.2097 87.7593 68.0458 87.7527 67.9344C87.7265 67.5804 87.8052 67.2657 87.8904 66.9314C87.9887 66.5577 88.087 66.1841 88.0477 65.7908L87.9428 65.6531C87.9428 65.6531 87.91 65.581 87.9166 65.5417C87.9297 65.5023 87.9559 65.4695 87.9953 65.463C87.9953 65.3974 88.0477 65.3253 88.1132 65.3253C88.1132 65.3253 88.1198 65.3253 88.1264 65.3253C88.1854 65.3253 88.2378 65.3515 88.2443 65.4105C88.2443 65.463 88.264 65.5154 88.2771 65.5613C88.2902 65.6072 88.3033 65.6662 88.3099 65.7252C88.3099 65.7777 88.3099 65.8301 88.3099 65.8825V65.9546C88.3033 66.0399 88.3033 66.112 88.3099 66.1841L88.3427 66.2169C88.3427 66.2169 88.4017 66.171 88.441 66.171C88.4803 66.171 88.5197 66.1906 88.5393 66.2234C88.559 66.2562 88.5655 66.3021 88.5524 66.3349C88.559 66.348 88.5721 66.3676 88.5787 66.3873C88.5852 66.4004 88.5918 66.4135 88.5983 66.4266C88.6114 66.4791 88.5918 66.5381 88.5393 66.5643C88.3361 66.6823 88.2312 66.8527 88.146 67.1805C88.1264 67.2657 88.0805 67.5017 88.0739 67.5935C88.0608 67.6656 88.0739 67.7312 88.1001 67.8098L88.1132 67.8754C88.1329 67.9672 88.1591 68.0589 88.1395 68.1507L88.1919 68.1966C88.2378 68.1966 88.2771 68.2228 88.2968 68.2687C88.3165 68.3081 88.3164 68.3605 88.2837 68.3933C88.2837 68.3998 88.205 68.4916 88.1985 68.5047L88.3755 69.1406C88.3755 69.1406 88.4148 69.1209 88.4344 69.1209C88.4672 69.1209 88.5065 69.134 88.5328 69.1537C88.5721 69.1865 88.5983 69.2586 88.5721 69.3045C88.4934 69.4749 88.5 69.5143 88.5197 69.6191C88.5328 69.665 88.5459 69.724 88.5524 69.8093C88.5655 70.0911 88.5524 70.3992 88.4869 70.7991V70.8319C88.4869 70.8319 88.5262 70.8188 88.5393 70.8188C88.5721 70.8188 88.5983 70.8319 88.6245 70.8516C88.6704 70.8975 88.6704 70.9761 88.6245 71.022C88.5787 71.081 88.5655 71.1007 88.5459 71.1203C88.1395 71.6054 88.1132 72.1364 88.1264 72.6871C88.1198 72.7854 88.1264 72.8248 88.1526 72.8575C88.1853 72.8707 88.2312 72.91 88.2443 72.9428C88.2575 72.9755 88.2706 73.0214 88.2575 73.0542C88.1657 73.2115 88.1985 73.3361 88.2378 73.4934L88.2771 73.6245C88.323 73.8081 88.3754 74.0047 88.4607 74.1227L88.7491 73.6966C88.8015 73.6245 88.8736 73.5459 88.9654 73.4541C88.9916 73.4279 89.0178 73.4213 89.0506 73.4213C89.0768 73.4213 89.1031 73.4279 89.1227 73.4475C89.1686 73.4869 89.1817 73.5524 89.1555 73.6049C89.1883 73.6376 89.221 73.6442 89.2473 73.6442C89.2473 73.6442 89.2604 73.6442 89.2669 73.6442C89.3259 73.6442 89.3718 73.6835 89.3849 73.7425C89.398 73.8015 89.3653 73.854 89.3128 73.8802C89.0244 74.0047 88.7229 74.1949 88.677 74.6734L88.9392 75.329C88.9392 75.329 88.972 75.3421 88.9916 75.3486C89.0178 75.3486 89.0375 75.3683 89.0506 75.388C89.0703 75.4142 89.0834 75.447 89.0768 75.4863C89.0768 75.5125 89.0768 75.5387 89.0768 75.5649C89.0768 75.5649 89.0768 75.6239 89.0768 75.6305C89.0768 75.7223 89.0768 75.7682 89.0768 75.8075L89.516 75.1585C89.8176 74.7455 90.2305 74.4702 90.6304 74.2014L90.6894 74.1621C90.945 73.9916 91.2007 73.8081 91.4301 73.5983C91.4629 73.5786 91.476 73.559 91.5022 73.5328C91.5284 73.5065 91.5612 73.4934 91.5874 73.4934C91.6137 73.4934 91.6399 73.5 91.6595 73.5196C91.7054 73.559 91.7185 73.6245 91.6858 73.677C92.2954 73.3558 92.6821 72.7068 92.8919 71.7235C92.8591 71.6776 92.8657 71.5858 92.905 71.5465C92.9968 71.4612 93.0558 71.3563 93.0754 71.2449C93.082 71.1925 93.1279 71.1466 93.1803 71.14C93.2196 71.0548 93.2459 70.9892 93.2721 70.9171C93.2917 70.8712 93.3376 70.845 93.3835 70.845C93.3835 70.845 93.3901 70.845 93.3966 70.845C93.4491 70.845 93.4884 70.8844 93.5015 70.9368C93.5212 70.9433 93.5408 70.9499 93.5605 70.9499C93.6064 70.9499 93.672 70.9237 93.7703 70.8712C93.7899 70.8647 93.8096 70.8581 93.8293 70.8581C93.862 70.8581 93.9014 70.8712 93.921 70.904C93.9604 70.9499 93.9604 71.0155 93.921 71.0548C93.9604 71.081 93.98 71.1335 93.9735 71.1793C93.9735 71.2252 93.9342 71.2711 93.8948 71.2842C93.7506 71.3301 93.6261 71.376 93.5671 71.4022C93.3966 71.4809 93.2918 71.5792 93.2131 71.7431C93.1279 71.9398 93.0558 72.1299 92.9837 72.3266C92.8329 72.7789 92.6887 73.1525 92.3675 73.5328C92.0594 73.8867 91.5153 74.1227 91.122 74.2932L90.7681 74.4571C90.7484 74.4964 90.7156 74.503 90.6763 74.503C90.6697 74.5095 90.6238 74.5357 90.6107 74.5423L90.5059 74.6472L90.4403 74.6865C90.2699 74.798 90.1257 74.8897 89.9683 75.0798C89.8307 75.2372 89.7848 75.3421 89.7389 75.4666C89.7127 75.5453 89.6996 75.5781 89.6865 75.6108C89.6734 75.6371 89.6537 75.6567 89.6209 75.6698C89.6144 75.6698 89.5881 75.6895 89.575 75.7157C89.3456 76.2008 89.2276 76.7449 89.1162 77.2825C88.9982 77.8528 88.8999 78.3182 88.7163 78.7509L88.5262 79.6424L88.8015 79.4917L88.8736 79.3999C88.9261 79.3278 88.9785 79.2753 89.0244 79.2163C89.1489 79.0524 89.2669 78.9017 89.3784 78.7378C89.398 78.705 89.4374 78.6853 89.4767 78.6853C89.4767 78.6853 89.4898 78.6853 89.4964 78.6853C89.5422 78.6853 89.5816 78.7247 89.5947 78.764C89.6406 78.7771 89.6799 78.8361 89.6865 78.8755C89.6865 78.9213 89.6865 78.9803 89.6537 79.0066C89.5685 79.0656 89.4898 79.1246 89.4046 79.1704C89.0572 79.5638 88.7688 79.9702 88.5787 80.3504L88.8802 81.419H88.8933C88.972 81.419 89.0178 81.3665 89.0572 81.3206L89.2735 81.0519C89.752 80.4553 90.5517 79.4589 90.6042 79.0459C90.6238 78.941 90.6042 78.8558 90.5845 78.7706C90.578 78.7509 90.5714 78.7247 90.5714 78.705C90.5714 78.6591 90.5976 78.6198 90.637 78.5936C90.6566 78.587 90.6697 78.5805 90.6894 78.5805C90.7156 78.5805 90.7418 78.587 90.7615 78.6067H90.8664L91.3252 77.3349C91.3056 77.289 91.3121 77.2038 91.3449 77.171L91.4826 77.2038L91.3908 77.1186C91.3908 77.1186 91.4236 77.0793 91.4432 77.0661L92.0463 75.5715C92.0463 75.5715 92.0332 75.4994 92.0135 75.4404C92.0004 75.3945 92.0135 75.3421 92.0528 75.3093C92.0725 75.2896 92.0987 75.2831 92.1315 75.2831C92.1512 75.2831 92.1774 75.2831 92.1905 75.3027C92.2102 75.2962 92.2298 75.2896 92.2495 75.2896C92.2954 75.2896 92.3478 75.3027 92.3675 75.3355C92.4068 75.3748 92.4461 75.4404 92.4134 75.4863C92.3675 75.5518 92.3151 75.6371 92.2757 75.7157L92.1971 76.0107C92.2429 76.0107 92.2757 76.0501 92.2954 76.0894C92.315 76.1287 92.2954 76.1877 92.2757 76.227C92.0266 76.5548 91.8431 77.0465 91.6923 77.4398L91.6661 77.4988C91.6333 77.5906 91.6005 77.6758 91.5678 77.7414C91.5743 77.7414 91.5874 77.7414 91.6005 77.7414C91.653 77.7414 91.712 77.7741 91.7382 77.82C91.7644 77.8725 91.771 77.9511 91.7316 77.9905C91.6989 78.0167 91.6727 78.0429 91.653 78.0626C91.5809 78.1216 91.5481 78.1544 91.4957 78.1675L90.9188 79.4261C90.9188 79.4261 90.9581 79.4458 90.9778 79.4458C91.0303 79.4458 91.1155 79.4064 91.2531 79.3016C91.4367 79.1639 91.6137 79.0131 91.7841 78.8623L91.9742 78.6985C92.1512 78.5477 92.3216 78.4035 92.4986 78.2724C92.5183 78.2592 92.5445 78.2461 92.5707 78.2461C92.61 78.2461 92.6428 78.2658 92.669 78.292C92.7083 78.3445 92.7018 78.4166 92.6494 78.4625C92.4265 78.6395 92.2102 78.8427 92.007 79.0393C91.7841 79.2557 91.5547 79.4786 91.3056 79.6556C91.2138 79.7277 91.0958 79.7932 90.9844 79.8653C90.8533 79.944 90.7287 80.0227 90.6238 80.1079C90.3092 80.357 89.5423 81.5173 89.3784 81.8779C89.2538 82.1728 89.2342 82.2581 89.2276 82.2777C89.2211 82.3564 89.339 82.7301 89.3784 82.8087C89.4046 82.8481 89.4243 82.8677 89.457 82.8677C89.4833 82.8677 89.5029 82.8481 89.5357 82.8087C89.5816 82.7563 89.6078 82.6973 89.6406 82.6448C89.6865 82.5662 89.7127 82.5137 89.7586 82.4678C89.8241 82.3761 90.0208 82.186 90.106 82.1204C90.1257 82.1073 90.1519 82.0942 90.1781 82.0942C90.2109 82.0942 90.2502 82.1073 90.2699 82.1401C90.3092 82.1925 90.3026 82.2646 90.2568 82.304C89.9028 82.6186 89.6537 83.2086 89.7061 83.6216C89.9946 83.4381 90.3157 83.2479 90.7746 83.0316C90.8664 82.9923 90.9778 82.953 91.1024 82.9136L91.2662 82.8546C91.6333 82.7301 91.9742 82.6055 92.1381 82.4744C92.2364 82.4088 92.3216 82.2581 92.3806 82.1532C92.3806 82.1532 92.4724 81.9959 92.4855 81.9631C92.5051 81.9237 92.551 81.8975 92.5969 81.8975C92.5969 81.8975 92.6035 81.8975 92.61 81.8975C92.6625 81.8975 92.7018 81.9369 92.7149 81.9893C92.728 81.9893 92.7739 82.0155 92.7805 82.0155C92.846 81.9565 92.8657 81.9434 92.8788 81.9172C93.0033 81.7664 93.5277 81.0584 93.5671 80.9011C93.5933 80.8159 93.5933 80.7306 93.5802 80.6127C93.5736 80.5471 93.6195 80.4881 93.6851 80.475C93.7113 80.475 93.7834 80.4619 93.8358 80.3111C94.0194 79.9047 94.4323 78.9082 94.3733 78.1937C94.3537 78.1806 94.3733 78.115 94.393 78.056C94.4127 78.0101 94.4586 77.9774 94.5044 77.9774C94.511 77.9774 94.5176 77.9774 94.5241 77.9774C94.5831 77.9905 94.6224 78.0364 94.6224 78.0954C94.6224 78.1347 94.629 78.1675 94.6355 78.2068C94.6618 78.4166 94.6814 78.587 94.6552 78.764L94.7732 78.6526C94.4061 77.3218 95.7171 75.8993 97.0281 75.6043C97.2314 75.8599 97.3625 76.1418 97.4477 76.4303C97.5001 76.4172 97.5525 76.3975 97.605 76.3844L97.6705 76.3647C97.6705 76.3647 97.6902 76.3647 97.7033 76.3647C97.7558 76.3647 97.8016 76.3975 97.8213 76.4499C97.841 76.5089 97.8082 76.5745 97.7492 76.6007C97.6705 76.6335 97.5984 76.6532 97.5394 76.6728C97.5263 76.6728 97.5198 76.6859 97.5132 76.6859C97.7689 78.0954 96.7659 79.5834 95.1337 79.2294C95.3763 79.059 95.4353 78.7902 95.5664 78.5477C95.3894 78.764 95.1796 78.9541 95.0289 79.1901C94.983 79.1246 94.9502 79.0525 94.9109 78.9803C94.6683 79.2622 94.4454 79.5572 94.3668 79.8653C94.3668 79.885 94.3537 79.9374 94.3733 79.9637C94.4258 79.9637 94.4848 80.0096 94.5044 80.0554C94.5176 80.1079 94.5176 80.1669 94.4782 80.1997C94.3471 80.298 94.1832 80.4553 94.1374 80.6585L93.5933 81.6812L93.6588 81.7205C93.7178 81.7205 93.7441 81.6877 93.7572 81.6681C93.7768 81.6287 93.8162 81.6091 93.862 81.6091C93.8948 81.6091 93.9342 81.6222 93.9538 81.6419C93.9604 81.6419 93.9735 81.6419 93.98 81.6419C93.9997 81.6419 94.0194 81.6353 94.0259 81.6222C94.0456 81.6091 94.0718 81.596 94.098 81.596H94.1767C94.3143 81.596 94.4061 81.596 94.4586 81.5566C94.4782 81.5435 94.4979 81.5435 94.5176 81.5435C94.5569 81.5435 94.5897 81.5632 94.6159 81.5894C94.6224 81.5894 94.7142 81.5697 94.7208 81.5697C94.806 81.5697 94.8781 81.5894 94.9371 81.6025C95.0616 81.6353 95.1337 81.6419 95.1862 81.6419C95.1927 81.6419 95.2452 81.6353 95.2517 81.6287C95.2779 81.6025 95.3238 81.5829 95.3632 81.5829C95.3632 81.5829 95.3763 81.5829 95.3828 81.5829C95.4221 81.5894 95.4746 81.6091 95.4877 81.6484L95.8351 81.8189C95.8351 81.8189 95.8745 81.8123 95.8941 81.8123C95.9466 81.8123 96.0056 81.8254 96.0252 81.8582C96.117 81.891 96.1694 81.9106 96.2088 81.9237C96.3136 81.9631 96.353 81.9827 96.3923 81.9827C96.4644 81.9827 96.53 81.9369 96.6348 81.8057C96.9626 81.419 97.0937 80.8486 96.9757 80.3177C96.956 80.2849 96.9495 80.2324 96.9626 80.1997C96.9823 80.1669 97.0216 80.121 97.0609 80.1144C97.074 80.1144 97.0937 80.1144 97.1134 80.1144C97.1396 80.1144 97.1593 80.1144 97.1724 80.1341C97.192 80.1275 97.2117 80.121 97.2379 80.121C97.2707 80.121 97.3035 80.1275 97.3297 80.1472C97.369 80.1734 97.4083 80.2193 97.4018 80.2652L97.3821 80.3504C97.369 80.3963 97.3625 80.4488 97.3493 80.5012C97.3493 80.5405 97.3493 80.5799 97.3493 80.6127V80.711L97.3297 80.8421C97.251 81.2616 97.1724 81.7009 96.8774 82.068C96.9102 82.1139 96.9364 82.1139 96.9626 82.1139H96.9691C97.5525 82.1139 98.0442 81.7074 98.326 81.0322C98.3457 80.9863 98.3916 80.9601 98.4375 80.9601C98.4506 80.9601 98.4637 80.9601 98.4768 80.9666C98.5358 80.9863 98.5686 81.0519 98.5555 81.1174L98.5424 81.1371C98.5424 81.1371 98.5948 81.1961 98.5948 81.242C98.5948 81.2879 98.5751 81.3206 98.5424 81.3403C98.4637 81.3928 98.3916 81.5042 98.3326 81.6025C98.2736 81.7009 98.2343 81.7599 98.195 81.8057C98.1556 81.8582 98.1032 81.9106 98.0442 81.9565C97.9721 82.0221 97.8869 82.1007 97.841 82.1991L97.8606 82.3564L97.9 82.2318L98.195 82.2122C98.2539 82.2122 98.3064 82.2581 98.3129 82.3171C98.3195 82.3826 98.2802 82.4416 98.2146 82.4482L97.959 82.4941C97.8738 82.5072 97.8082 82.54 97.7885 82.5793C97.7885 82.5793 97.7885 82.6448 97.7885 82.6514C97.8279 82.6907 97.8213 82.7366 97.7885 82.7825C97.7689 82.8153 97.7361 82.8284 97.6968 82.8284C97.6771 82.8284 97.6574 82.8284 97.6378 82.8153C97.6247 82.8153 97.5526 82.776 97.546 82.7694C97.2314 82.6514 96.8905 82.5137 96.5496 82.481C96.5234 82.5924 96.4382 82.6711 96.3726 82.7301C96.3136 82.7825 96.2546 82.835 96.2219 82.9071C96.2219 82.9595 96.1891 83.0119 96.1432 83.0316C96.0187 83.0709 95.8745 83.1824 95.8679 83.3004C95.8679 83.3528 95.8286 83.3987 95.7761 83.4053C95.6647 83.4315 95.5467 83.5561 95.3238 83.7789L95.1927 83.9166C95.0682 83.9887 95.0288 84.0084 94.9961 84.0412C94.7273 84.2968 94.4848 84.5328 94.3144 84.8213C94.5503 84.8147 94.7601 84.7885 95.0026 84.7885H95.1993C95.1993 84.7885 95.2779 84.8081 95.291 84.8147C95.3894 84.8475 95.4353 84.8606 95.4877 84.8606C95.5139 84.8606 95.6057 84.8344 95.6778 84.8081C95.6909 84.8081 95.7106 84.8081 95.7302 84.8081C95.7565 84.8081 95.7827 84.8081 95.7958 84.8213C95.8286 84.8409 95.8613 84.8671 95.8679 84.8999L96.8774 85.0966C96.9298 85.0835 96.9626 85.0769 96.9954 85.0769C97.0871 85.0769 97.192 85.1031 97.2903 85.1228C97.3821 85.1425 97.4542 85.1556 97.5132 85.1556C97.5591 85.1556 97.6705 85.0966 97.7558 85.031C97.7754 85.0179 97.8016 85.0048 97.8279 85.0048C97.8475 85.0048 97.8672 85.0048 97.8803 85.0179C97.9196 85.0376 97.9459 85.0835 97.9459 85.1294V85.1884L98.0442 85.208C98.8046 85.208 99.4535 85.1228 100.03 84.9524C100.129 84.9261 100.214 84.8868 100.306 84.8475L100.489 84.7754C100.515 84.7164 100.522 84.6836 100.529 84.6443C100.535 84.5853 100.588 84.5394 100.647 84.5394C100.719 84.5394 100.751 84.5132 100.791 84.4476C100.791 84.4476 100.797 84.4345 100.804 84.4279C100.83 84.3951 100.863 84.3755 100.902 84.3755C100.928 84.3755 100.948 84.382 100.968 84.3952C101.02 84.4345 101.04 84.5066 101.001 84.559V84.5656C101.014 84.5656 101.053 84.5918 101.06 84.5918L101.092 84.5787L101.171 84.5525C101.171 84.5525 101.191 84.5525 101.204 84.5525C101.25 84.5525 101.295 84.5787 101.315 84.6311C101.341 84.6901 101.315 84.7557 101.263 84.7819C101.151 84.8409 101.073 84.8803 101.027 84.9065C100.928 84.9327 100.922 84.9589 100.935 85.0573C100.935 85.09 100.922 85.1425 100.896 85.1687C100.869 85.1884 100.843 85.2146 100.81 85.2146C100.81 85.2146 100.81 85.2146 100.804 85.2146C100.758 85.2146 100.699 85.2146 100.647 85.2146L100.332 85.2211C100.253 85.2146 100.227 85.2146 100.207 85.2146C100.148 85.2146 100.129 85.2277 100.116 85.2474C100.109 85.2605 100.096 85.2998 100.102 85.3129C100.102 85.3457 100.089 85.3981 100.063 85.4178C100.037 85.444 100.004 85.4637 99.9714 85.4637C99.9714 85.4637 99.9714 85.4637 99.9648 85.4637C99.8403 85.4506 99.6961 85.444 99.5387 85.444C99.2765 85.444 99.0209 85.4637 98.7521 85.4834C98.4703 85.5096 98.2081 85.5292 97.9459 85.5292C97.8737 85.5292 97.8148 85.5292 97.7426 85.5227C97.6837 85.5227 97.605 85.5096 97.5263 85.4899C97.4215 85.4702 97.3166 85.4506 97.2051 85.4506C97.1527 85.4506 97.1003 85.4506 97.0478 85.4637C97.133 85.621 97.2445 85.7128 97.3821 85.8046C97.4346 85.8373 97.4542 85.9095 97.4214 85.9685C97.4018 86.0078 97.3559 86.0275 97.3166 86.0275C97.2969 86.0275 97.2772 86.0275 97.2576 86.0144C97.1789 85.9685 96.8315 85.7718 96.8315 85.7718C96.3005 85.4571 95.94 85.267 95.3566 85.2277C95.2911 85.2211 95.2255 85.2211 95.16 85.2211H95.1468C94.5831 85.2211 94.0915 85.4047 93.6326 85.5882L93.6064 85.7521L93.6719 85.6407C93.7309 85.6538 93.7768 85.7062 93.7703 85.7652C93.7703 85.8242 93.7178 85.8767 93.6588 85.8832C93.4032 85.9029 93.2 85.975 93.0295 86.1061C92.9116 86.1913 92.7805 86.329 92.6494 86.4667L92.5969 86.5257C92.5051 86.6109 92.4593 86.6633 92.4724 86.7223C92.4789 86.742 92.4855 86.7551 92.4855 86.7748C92.4855 86.8403 92.433 86.8993 92.3609 86.8993C92.3413 86.8993 92.3216 86.8993 92.2954 86.9124C92.1905 86.9387 92.0922 87.0763 91.948 87.2796C91.9021 87.3451 91.8562 87.4041 91.83 87.4434C91.8627 87.4959 91.889 87.5024 91.9152 87.5024C91.9939 87.5024 92.0594 87.4828 92.1184 87.4631C92.1774 87.4434 92.2298 87.4369 92.2757 87.4303H92.4396C92.7477 87.4303 93.023 87.4762 93.3311 87.5418C93.3508 87.5287 93.3901 87.5155 93.4229 87.5155C93.4687 87.5155 93.5081 87.5287 93.5343 87.5549C93.6261 87.627 93.7375 87.6467 93.8424 87.6663C93.9473 87.686 94.0194 87.6991 94.0718 87.7253C94.098 87.7057 94.1439 87.6925 94.1898 87.6925C94.2226 87.6925 94.2554 87.6991 94.275 87.7188C94.3406 87.7188 94.4192 87.7843 94.4192 87.8499C94.4192 87.9154 94.3865 87.981 94.3209 87.981H94.1177C94.1177 87.981 94.0784 88.0203 94.0784 88.04C94.0784 88.0924 94.0456 88.1383 93.9997 88.1514C93.9866 88.1514 93.9735 88.158 93.9604 88.158C93.9276 88.158 93.8883 88.1449 93.8686 88.1121C93.7309 87.9417 93.5277 87.8892 93.3508 87.8564C93.3311 87.8695 93.3049 87.8761 93.2852 87.8761C93.2459 87.8761 93.2065 87.863 93.1869 87.8368C93.1672 87.8171 93.141 87.804 93.1017 87.7974C93.0164 87.7909 92.9247 87.7843 92.8263 87.7843C92.5641 87.7843 92.2429 87.8171 92.0135 87.8761C91.9021 87.8958 91.4432 88.04 91.3318 88.1121C91.2925 88.1383 91.2662 88.1645 91.2466 88.1973C91.2269 88.2366 91.1876 88.2563 91.1417 88.2563C91.1417 88.2563 91.1286 88.2563 91.122 88.2563C90.9254 88.3546 89.9618 89.2593 89.8766 89.3773C89.8045 89.4953 89.7389 89.8296 89.6537 90.2492L89.6078 90.4524C89.575 90.6032 89.5488 90.7408 89.516 90.8261C89.3128 91.4947 89.0178 92.1634 88.5787 92.9304C88.3755 93.2909 88.1329 93.6711 87.8969 94.0317C87.3135 94.9363 86.7039 95.8672 86.5073 96.7915C86.4876 96.8702 86.4745 96.9423 86.4679 97.0144L86.4548 97.0931C86.4351 97.2701 86.4089 97.4077 86.3696 97.5323C86.3893 97.5388 86.4024 97.5454 86.422 97.5454C86.5072 97.5454 86.6056 97.4864 86.7039 97.4077C87.3791 96.8833 88.2181 96.0049 88.7491 95.3755C89.1883 94.8446 89.2801 94.4119 89.3784 93.9071C89.4177 93.6777 89.4767 93.4482 89.5423 93.2254C89.5554 93.1598 89.5947 93.0877 89.6275 93.0156L89.6734 92.9238C89.7127 92.8451 89.7455 92.773 89.7586 92.714C89.7651 92.6878 89.7717 92.6616 89.7717 92.6354C89.7717 92.5764 89.8372 92.478 89.8962 92.478L89.9421 92.6026L89.9749 92.4846C90.0077 92.4846 90.047 92.4649 90.0732 92.4256L90.3354 92.2093C90.4206 92.1371 90.5058 92.065 90.5779 91.9864C90.6042 91.9602 90.6304 91.947 90.6697 91.947C90.6828 91.947 90.7025 91.947 90.7156 91.9536C90.7615 91.9733 90.7943 92.0191 90.7943 92.065C90.7943 92.0847 90.7877 92.1109 90.7812 92.1306C90.6435 92.2879 90.5386 92.3928 90.4403 92.4911C90.0601 92.8714 89.7389 93.1926 89.8503 93.9202L89.6734 94.72C89.8307 94.6807 89.9421 94.5954 90.047 94.5168C90.2043 94.3988 90.3289 94.3004 90.4731 94.2152C90.6173 94.13 90.7877 94.0448 90.9581 93.9661L91.0893 93.9071C91.5481 93.6973 92.0594 93.4613 92.3609 93.1008C92.4855 92.9369 92.5838 92.7599 92.6625 92.5501C92.6821 92.5042 92.728 92.4715 92.7739 92.4715C92.787 92.4715 92.8001 92.4715 92.8132 92.4715C92.8722 92.4911 92.9116 92.5567 92.8919 92.6222L92.787 92.9828C92.9771 92.9041 93.141 92.8058 93.2983 92.714L93.3835 92.6616C93.6064 92.5305 93.8227 92.3994 94.0259 92.2551C94.4717 91.9339 94.8387 91.6651 94.983 91.2128C94.9961 91.18 95.0026 91.1538 95.0092 91.1276C95.0157 91.0686 95.0682 91.0293 95.1272 91.0293C95.1862 91.0293 95.2386 91.0752 95.2452 91.1342C95.7237 90.7867 96.0252 90.4393 96.0646 90.2688C96.0646 90.2229 96.0973 90.1705 96.1432 90.1508C96.1629 90.1443 96.176 90.1377 96.1957 90.1377C96.2284 90.1377 96.2546 90.1508 96.2743 90.1705C96.3136 90.1443 96.3464 90.1246 96.3923 90.105C97.3362 89.5608 97.5526 88.984 97.6705 87.9679C97.6968 87.8827 97.6902 87.863 97.6837 87.8433C97.6705 87.8105 97.664 87.7778 97.6837 87.745C97.6968 87.7122 97.723 87.686 97.7492 87.6729C97.7492 87.6073 97.8148 87.5352 97.8803 87.5352C97.9459 87.5352 98.0114 87.5745 98.0114 87.6401C98.0376 87.686 98.018 87.7515 97.9852 87.7909L97.8934 88.4268C97.9327 88.4399 97.9655 88.4858 97.9786 88.5251C97.9852 88.571 97.9786 88.6234 97.9393 88.6496C97.9131 88.6759 97.8869 88.6955 97.8803 88.7086C97.8803 88.7086 97.8803 88.7152 97.8737 88.7217C97.8082 88.807 97.7754 88.9119 97.7426 89.0299C97.7295 89.102 97.7033 89.1741 97.6705 89.2396C97.6181 89.3511 97.5591 89.4625 97.487 89.574C97.4477 89.6395 97.4083 89.7182 97.3625 89.7903C97.3887 89.8231 97.3952 89.8821 97.3821 89.9214C97.369 89.9607 97.3362 90.0066 97.2969 90.0197C97.1396 90.0656 97.015 90.105 96.9298 90.1574C96.5431 90.3606 96.3005 90.6425 96.0646 90.9178L95.9269 91.0817C95.9269 91.0817 95.8548 91.1473 95.8482 91.1538C95.6581 91.3374 95.5467 91.4554 95.5467 91.5275C95.6122 91.5275 95.6385 91.5865 95.645 91.652C95.645 91.7176 95.586 91.7831 95.527 91.7963L95.4222 91.8159C95.3435 91.829 95.2714 91.8422 95.2189 91.8618C95.0878 91.9077 94.9109 92.0913 94.688 92.3273C94.6093 92.4256 94.5241 92.5108 94.4586 92.5632L94.0063 92.9172C94.039 92.9697 94.098 92.9697 94.098 92.9697C94.1505 92.9697 94.2029 92.95 94.2488 92.9304C94.3078 92.9107 94.334 92.8976 94.3668 92.8976C94.7011 92.8648 95.0551 92.8386 95.409 92.8189C95.9662 92.7927 96.3726 92.7599 96.7528 92.714C97.4673 92.6288 98.3785 91.7766 98.8636 91.3243L98.9226 91.2718C99.0406 91.1669 99.1323 91.0424 99.2175 90.8982C99.2372 90.8654 99.27 90.8392 99.3093 90.8392H99.3224C99.3552 90.8392 99.388 90.8523 99.4076 90.8785C99.4535 90.8326 99.4929 90.8064 99.5453 90.7736C99.5453 90.7736 99.5977 90.7408 99.6043 90.7343C99.6633 90.7081 99.6895 90.6884 99.7092 90.6687C99.7616 90.6163 99.8206 90.5573 99.8927 90.4786C99.9189 90.4524 99.9517 90.4393 99.9845 90.4393C99.9976 90.4393 100.017 90.4393 100.03 90.4458C100.076 90.4655 100.109 90.5114 100.109 90.5573C100.109 90.5573 100.161 90.5573 100.168 90.5573L100.227 90.5311C100.227 90.5311 100.253 90.5311 100.26 90.5311C100.306 90.5311 100.358 90.5638 100.371 90.6097C100.391 90.6687 100.371 90.7343 100.306 90.7605L100.109 90.8392C99.3224 91.1932 98.739 91.829 98.1753 92.4387L98.0704 92.5501C98.1163 92.6026 98.1491 92.6026 98.1884 92.6026C98.2736 92.6026 98.3588 92.5829 98.4244 92.5632L98.5948 92.5305L99.0078 92.5042C99.1979 92.4977 99.388 92.4911 99.5584 92.4715C99.6108 92.4649 99.8599 92.4059 99.9058 92.3797C99.9386 92.36 100.004 92.3338 100.057 92.3338C100.076 92.3338 100.089 92.3338 100.102 92.3469C100.968 92.2945 101.702 92.1765 102.266 91.4488C102.561 91.0752 102.666 90.6622 102.738 90.1574C102.744 90.0984 102.797 90.0525 102.856 90.0525C102.856 90.0525 102.856 90.0525 102.862 90.0525C102.928 90.0525 102.974 90.1115 102.974 90.1705C103.105 90.1443 103.157 90.0525 103.216 89.9542C103.242 89.9017 103.275 89.8493 103.314 89.8034C103.511 89.5609 103.741 89.3773 103.983 89.1872L104.108 89.0823C104.213 88.9971 104.317 88.9053 104.416 88.8135C104.488 88.7545 104.632 88.6234 104.802 88.453C104.829 88.4268 104.855 88.4202 104.888 88.4202C104.907 88.4202 104.927 88.4202 104.94 88.4333C104.986 88.4595 105.012 88.5054 105.006 88.5579C105.006 88.5775 105.006 88.5972 105.006 88.6038C105.019 88.6169 105.025 88.63 105.032 88.6431C105.045 88.6955 105.032 88.748 104.986 88.7807C104.947 88.8135 104.94 88.8332 104.947 88.8594C104.979 88.8922 104.993 88.9446 104.973 88.9905C104.953 89.0364 104.914 89.0692 104.868 89.0692C104.317 89.1085 103.845 89.6067 103.537 89.9738C103.459 90.0525 103.426 90.0918 103.446 90.1771C103.478 90.2098 103.478 90.2426 103.459 90.2885C103.439 90.3344 103.38 90.3475 103.334 90.3475L103.164 90.2951L103.262 90.3672C103.098 90.5901 102.96 90.8326 102.823 91.0752L102.751 91.1997C102.58 91.4882 102.416 91.7635 102.187 92.0126C102.187 92.0454 102.213 92.0519 102.226 92.0519C102.325 92.0519 102.646 91.9929 102.698 91.9798C103.144 91.8618 103.465 91.5799 103.741 91.3308C103.813 91.2653 103.891 91.1997 103.963 91.1342C103.983 91.1145 104.009 91.1079 104.042 91.1079C104.055 91.1079 104.068 91.1079 104.088 91.1145C104.127 91.1276 104.16 91.1669 104.167 91.2063L104.193 91.2718C104.239 91.298 104.265 91.3439 104.258 91.3964C104.252 91.4488 104.213 91.4882 104.16 91.5013C104.009 91.534 103.885 91.5799 103.793 91.652C103.734 91.6914 103.695 91.7307 103.649 91.7831C103.603 91.8356 103.564 91.8749 103.524 91.8946C103.314 92.0454 103.065 92.183 102.81 92.2945C102.718 92.3404 102.692 92.3535 102.685 92.3862C102.705 92.4256 102.705 92.4715 102.685 92.5108C102.666 92.5436 102.626 92.5764 102.587 92.5764C102.548 92.5764 102.548 92.5764 102.305 92.4387C102.003 92.4977 101.708 92.537 101.42 92.5764L101.151 92.6157C100.896 92.6485 100.633 92.6813 100.384 92.7337C100.306 92.7468 100.234 92.7665 100.155 92.7927L100.083 92.8124C99.9714 92.8386 99.8534 92.8648 99.7354 92.8648C99.7157 92.8648 99.6764 92.8648 99.6502 92.8648C99.6174 92.8976 99.6109 92.9172 99.6109 92.9369C99.6109 92.9762 99.5912 93.0221 99.5584 93.0418C99.5322 93.0615 99.506 93.0746 99.4732 93.0746C99.4666 93.0746 99.4601 93.0746 99.447 93.0746C99.388 93.0615 99.3486 93.0418 99.3093 93.0156C99.2569 92.9959 99.2307 92.9828 99.1258 92.9828H99.0012C98.3195 93.0221 97.6181 93.1139 96.9626 93.2122L95.999 93.3433H95.6909C95.586 93.3433 95.4746 93.3499 95.3632 93.4023V93.4745C95.3894 93.5138 95.468 93.5335 95.527 93.54C95.7171 93.5859 95.881 93.6383 96.0318 93.6908L96.1825 93.7432C96.5103 93.8612 96.7725 93.9399 96.9626 93.9792C97.0216 93.9923 97.074 93.9923 97.1265 93.9923H97.1396C97.1986 93.9923 97.2445 93.9923 97.2838 93.9858C97.2969 93.9858 97.3035 93.9858 97.3166 93.9858C97.3428 93.9858 97.369 93.9923 97.3887 94.012C97.4215 94.0317 97.4346 94.071 97.4346 94.1103C97.546 94.2218 97.6574 94.2939 97.7885 94.3594C97.8475 94.3922 97.8672 94.4578 97.841 94.5168C97.8213 94.5627 97.7754 94.5889 97.7295 94.5889C97.7164 94.5889 97.6968 94.5889 97.6837 94.5823C97.2641 94.4053 96.7397 94.2218 96.7004 94.2087C96.3792 94.1103 95.7237 93.9465 95.3369 93.9006C95.2779 93.894 95.1862 93.8875 95.101 93.8875C95.0354 93.8875 94.9699 93.8875 94.9305 93.9006L94.4389 93.776H94.3865C94.2947 93.776 94.2095 93.7695 94.1242 93.7695C93.2131 93.7695 92.2364 94.1169 91.4498 94.7134C91.3973 94.7528 91.3711 94.7921 91.3711 94.8118C91.7448 94.8511 92.0987 94.9822 92.4068 95.0937C92.5183 95.133 92.5641 95.1592 92.6035 95.1854C92.6952 95.2379 92.7673 95.2772 92.846 95.2772C92.8722 95.2772 92.9181 95.2641 92.964 95.251C92.9771 95.251 92.9837 95.251 92.9968 95.251C93.0427 95.251 93.0885 95.2707 93.1148 95.3034C93.141 95.3493 93.1607 95.3952 93.1279 95.4345C93.1279 95.4804 93.1279 95.4935 93.1738 95.5263C93.377 95.6968 93.9669 95.9131 94.2881 95.9786C94.3471 95.9918 94.393 96.0508 94.3865 96.1098C94.3799 96.1688 94.3275 96.2146 94.2685 96.2146C94.0128 96.2081 93.8162 96.1753 93.6326 96.1163C93.4097 96.0508 93.2 95.9328 92.9771 95.8082C92.6166 95.605 92.2626 95.4018 91.7906 95.3428C91.6071 95.3231 91.4367 95.31 91.2728 95.31C90.6959 95.31 90.2895 95.4608 89.8569 95.8279C89.5357 96.0966 89.2604 96.431 89.0178 96.7325C88.8999 96.8767 88.795 97.0013 88.6835 97.1259L88.5787 97.2373C88.3886 97.434 88.0346 97.8076 88.0215 97.8732L88.087 97.9125C88.1526 97.8863 88.2509 97.8666 88.3558 97.8404C88.5 97.8076 88.6835 97.7683 88.8343 97.7027C89.0572 97.6175 89.2801 97.4667 89.4898 97.3225C89.8176 97.0931 90.1584 96.8571 90.5583 96.7915C90.6238 96.7719 90.6894 96.7719 90.7484 96.7719C90.8205 96.7719 90.8795 96.7719 90.9516 96.7784C91.0171 96.785 91.063 96.8374 91.0565 96.903C91.0565 96.9685 91.004 97.0144 90.945 97.021C90.5059 97.0472 89.988 97.2897 89.7717 97.5716C89.7848 97.611 89.7717 97.6568 89.752 97.6896C89.7323 97.7224 89.693 97.7486 89.6537 97.7486C89.457 97.7486 89.3587 97.8338 89.2473 97.9191C89.1883 97.9715 89.1358 98.0108 89.0768 98.0436C88.8277 98.1944 88.5459 98.2731 88.2312 98.3517C87.7593 98.4763 87.2742 98.6074 86.9596 99.1122C86.6121 99.689 86.4286 100.345 86.4679 100.915C86.5728 102.613 86.7301 110.073 86.9596 110.945C86.9596 110.945 86.9596 110.951 86.9596 110.958C87.1234 111.561 87.7003 111.954 88.323 111.954H96.6938C105.058 111.954 111.843 105.169 111.843 96.8046V58.3896H58.2549L58.4122 58.4355ZM78.0381 96.8046L77.2056 97.5192L78.2216 96.9423L78.2937 97.08C78.4642 99.217 76.1699 99.8464 74.4656 99.276C74.3017 99.1449 74.5639 98.3452 74.636 98.1616C75.1735 96.844 76.7599 96.1622 78.0446 96.8112L78.0381 96.8046ZM71.7649 95.1461C72.4728 94.7069 73.7839 94.4906 74.4525 95.074C74.6032 95.2051 74.5967 95.1461 74.6688 95.3624C75.344 97.375 71.8108 99.0859 70.2244 98.1223C70.408 97.0865 70.8144 95.7295 71.7649 95.1461ZM69.8246 94.1038C69.9032 94.1169 70.6833 94.4578 70.5391 94.6086L68.8544 95.0019C69.6542 94.9035 71.4634 94.2546 70.3621 95.7164C69.5886 96.7456 67.8843 96.5555 66.9928 95.7885C67.6483 94.7265 68.4611 93.8678 69.8246 94.1038ZM78.687 88.9971C78.8509 89.0036 79.8997 89.2659 79.867 89.4625L77.789 90.1771C78.5101 90.1115 79.1525 89.6657 79.9063 89.7837C79.6048 91.7242 77.2122 92.1109 75.711 91.2522C76.2158 90.0394 77.2712 88.9315 78.687 88.9971ZM74.9572 68.5965C75.0752 67.941 75.9274 67.3182 76.3534 66.8396C77.1728 67.8295 77.8087 68.9702 76.9631 70.1698C75.8094 71.8021 74.7278 69.842 74.9572 68.5899V68.5965ZM70.9062 87.7122C70.9848 87.7253 71.7649 88.0662 71.6207 88.217L69.936 88.6103C70.7357 88.512 72.5449 87.863 71.4437 89.3249C70.6702 90.3541 68.9659 90.1639 68.0744 89.397C68.7299 88.335 69.5427 87.4762 70.9062 87.7122ZM69.6542 86.1913L65.9702 86.27L69.4903 86.7223C68.33 88.1318 66.4422 87.7843 65.0853 86.8993C64.9542 86.8141 64.2266 86.3356 64.3511 86.1913C65.0984 85.8111 65.5638 85.1097 66.3766 84.8016C67.5303 84.3558 69.1625 85.0638 69.6607 86.1913H69.6542ZM69.8115 83.4315C69.4116 83.0119 68.9462 82.4416 68.4152 82.2515C68.6053 82.5531 69.995 83.4905 69.5231 83.7199C67.5434 84.2247 66.4618 82.6514 66.2586 80.888C66.3373 80.6782 67.3664 80.6848 67.5828 80.711C68.8741 80.8355 70.2376 82.0614 69.8049 83.4381L69.8115 83.4315ZM69.936 80.3767C68.6643 79.5769 68.6119 77.7414 68.7823 76.4172C68.8544 76.3188 68.8938 76.3319 68.9986 76.3254C69.6214 76.2926 71.3978 77.3677 71.778 77.9184C72.9055 79.5507 71.9288 81.6287 69.936 80.3832V80.3767ZM72.0336 69.7765C73.915 69.37 76.7533 70.8516 75.9995 73.087C75.9798 73.1394 76.065 73.1788 75.9208 73.3033C75.5996 73.5852 74.5574 73.6049 74.1247 73.4541C72.427 72.8444 72.073 71.3957 72.0336 69.783V69.7765ZM75.0621 79.2426C74.9113 79 74.7016 78.8165 74.5246 78.6001C74.6491 78.8361 74.7081 79.1115 74.9572 79.2819C72.8989 79.7277 71.8239 77.23 73.0562 75.6633C74.5508 75.9976 76.0388 77.7872 75.0621 79.2491V79.2426ZM77.8349 81.1895C77.7562 81.1895 77.7562 81.1305 77.73 81.0715C77.6251 80.8618 77.5727 80.3308 77.4678 80.0882C77.376 80.0882 77.4154 80.1603 77.4219 80.2062C77.4416 80.3308 77.7628 81.1633 77.6841 81.2158C76.6484 80.9273 76.5763 79.7736 77.0483 78.9672C78.0315 79.2884 78.6412 80.3439 77.8414 81.1895H77.8349ZM76.8451 77.6627C76.8451 77.6627 76.8778 77.7414 76.7009 77.7348C76.4518 77.7283 75.8421 77.2563 75.6979 77.053C74.9048 75.9583 75.4554 74.4702 76.3076 73.5786C77.5268 74.2342 78.2872 77.0399 76.8451 77.6627ZM80.3651 75.8009C80.9223 76.3909 80.8568 77.9511 80.1095 78.3314C80.0439 78.3641 79.926 78.3314 79.8604 78.2986C78.7133 77.702 79.3753 76.1812 80.3651 75.7944V75.8009ZM78.2937 65.6924C79.2115 65.8956 80.3979 66.7479 79.7293 67.7705C79.6179 67.4362 79.4147 67.2395 79.1918 66.9839C79.2704 67.1477 79.7096 67.8361 79.513 67.9147C78.2937 67.9475 77.9332 66.6954 78.2937 65.6924ZM77.8218 71.7562C77.2056 70.1698 78.5559 69.1209 79.7228 68.3539C80.3783 69.4028 80.7585 70.5959 79.9718 71.6841C79.3753 72.5167 78.3069 73.0083 77.8218 71.7562ZM79.8866 73.2312C79.5523 73.1132 79.6965 72.7461 79.7686 72.4773C79.808 72.4249 79.8735 72.2741 79.8866 72.202C80.293 71.8677 80.5749 71.7366 81.1386 71.7628C81.178 71.789 81.1518 71.907 81.1583 71.9594C81.2501 72.5953 80.6274 73.4934 79.8866 73.2312ZM86.6121 92.8124C86.5925 92.9107 86.5728 92.9369 86.4876 92.9828C85.6158 93.422 84.9865 92.1765 85.17 91.4357C86.0287 91.2587 86.7695 91.9143 86.6121 92.8124ZM85.5961 89.6789H85.4519L85.1307 87.6598L85.3011 89.7575C84.0229 89.2724 84.5538 87.627 85.1766 86.801C85.76 87.7057 86.4941 88.7021 85.5895 89.6789H85.5961ZM86.0812 82.4351C86.0156 82.6383 85.5437 83.3266 85.3601 83.4118C85.3405 83.4184 85.2815 83.4118 85.2487 83.4118C85.2159 83.556 84.7177 83.3594 84.5276 83.0251C83.7541 81.6615 84.0294 80.9601 85.0586 79.8522C85.9173 80.5078 86.4548 81.3338 86.0877 82.4416L86.0812 82.4351ZM86.4417 78.2396C84.9537 78.7312 84.1802 77.525 84.0753 76.1943C85.4847 75.8206 86.8284 76.7056 86.4417 78.2396ZM88.2509 84.0412L88.1198 84.1001L86.953 82.4285L88.0215 84.2378C86.658 84.3624 86.422 82.6514 86.6187 81.6353C87.5364 82.1991 88.6311 82.7694 88.2509 84.0477V84.0412ZM85.4388 75.1847C84.3572 74.4833 84.4293 73.3033 84.6784 72.1823C85.7731 72.3069 86.8612 72.9821 86.9923 74.1424C87.1234 75.3027 86.5007 75.8731 85.4388 75.1782V75.1847ZM86.7826 70.3206C86.6318 70.5238 85.9566 71.1138 85.7272 71.1335C85.5764 71.1466 85.6092 71.0745 85.6026 71.0745C85.0455 70.9499 84.4096 69.9076 84.2982 69.37C83.9836 67.8295 84.993 66.6889 86.0156 65.699C86.9858 67.0429 87.9297 68.7735 86.7891 70.3271L86.7826 70.3206ZM90.3354 78.3051C90.2699 78.3379 90.1519 78.3707 90.0863 78.3379C89.339 77.9577 89.28 76.3909 89.8307 75.8075C90.8205 76.1877 91.4826 77.7151 90.3354 78.3117V78.3051ZM90.2961 89.7903C91.0499 89.6723 91.6858 90.1181 92.4134 90.1836L90.3354 89.4691C90.3092 89.2724 91.3515 89.0102 91.5153 89.0036C92.9247 88.9446 93.9866 90.0525 94.4913 91.2587C92.9902 92.1175 90.5976 91.7307 90.2961 89.7903ZM96.4513 89.7247L96.1432 88.0203L96.0973 89.6395C94.9502 89.0036 95.1272 87.5024 95.8351 86.5781C96.9954 87.3844 97.8672 88.6496 96.4447 89.7247H96.4513ZM95.7368 99.2695C94.0325 99.8464 91.7382 99.217 91.9086 97.0734L91.9807 96.9357L92.9968 97.5126L92.1643 96.7981C93.4491 96.1425 95.0354 96.8309 95.5729 98.1485C95.645 98.3321 95.9072 99.1318 95.7434 99.2629L95.7368 99.2695ZM95.5336 95.3624C95.6057 95.1461 95.5991 95.2051 95.7499 95.074C96.4185 94.4906 97.7295 94.7069 98.4375 95.1461C99.388 95.7295 99.7944 97.0865 99.9779 98.1223C98.3916 99.0859 94.8584 97.375 95.5336 95.3624ZM99.8337 95.7164C98.7325 94.2546 100.535 94.9035 101.341 95.0019L99.6567 94.6086C99.5125 94.4578 100.299 94.1169 100.371 94.1038C101.728 93.8678 102.548 94.7265 103.203 95.7885C102.312 96.5621 100.607 96.7456 99.8337 95.7164ZM91.9086 65.6924C92.2692 66.6954 91.9086 67.9475 90.6894 67.9147C90.4927 67.8361 90.9385 67.1477 91.0106 66.9839C90.7877 67.2395 90.5845 67.4362 90.4731 67.7705C89.7979 66.7479 90.9909 65.8956 91.9086 65.6924ZM90.3158 73.2312C89.575 73.5 88.9588 72.5953 89.0441 71.9594C89.0506 71.907 89.0244 71.789 89.0637 71.7628C89.6275 71.73 89.9093 71.8677 90.3158 72.202C90.3289 72.2741 90.3944 72.4249 90.4337 72.4773C90.5059 72.7461 90.6501 73.1132 90.3158 73.2312ZM92.374 71.7562C91.889 73.0083 90.8205 72.5167 90.224 71.6841C89.4374 70.5894 89.8241 69.4028 90.4731 68.3539C91.6399 69.1275 92.9837 70.1764 92.374 71.7562ZM93.2328 70.1764C92.3806 68.9767 93.023 67.8361 93.8424 66.8462C94.2685 67.3247 95.1206 67.9475 95.2386 68.6031C95.4615 69.8486 94.3864 71.8152 93.2328 70.1829V70.1764ZM92.5183 81.2158C92.4396 81.1568 92.7608 80.3308 92.7805 80.2062C92.787 80.1603 92.8263 80.0882 92.7346 80.0882C92.6231 80.3373 92.5773 80.8618 92.4724 81.0715C92.4396 81.1305 92.4462 81.1961 92.3675 81.1895C91.5678 80.3439 92.1774 79.295 93.1606 78.9672C93.6326 79.7736 93.5605 80.9208 92.5248 81.2158H92.5183ZM94.4979 77.053C94.3537 77.2563 93.7441 77.7283 93.495 77.7348C93.318 77.7348 93.3573 77.6693 93.3508 77.6627C91.9086 77.0399 92.669 74.2342 93.8883 73.5786C94.7404 74.4702 95.2911 75.9648 94.4979 77.053ZM96.0711 73.4475C95.645 73.6049 94.5962 73.5852 94.275 73.2968C94.1308 73.1722 94.216 73.1329 94.1964 73.0804C93.4425 70.845 96.2809 69.3635 98.1622 69.7699C98.1228 71.3826 97.7689 72.8313 96.0711 73.441V73.4475ZM96.9102 84.4345C96.9102 84.4345 96.8053 84.3755 96.7987 84.3427C96.7856 84.2772 96.838 84.2903 96.838 84.2837C96.8512 83.0775 98.7325 82.6645 99.6305 83.2086C99.3421 84.2772 97.8934 85.4702 96.9102 84.4345ZM98.4178 77.9118C98.798 77.3677 100.568 76.286 101.197 76.3188C101.302 76.3188 101.348 76.3123 101.413 76.4106C101.577 77.7348 101.531 79.5769 100.26 80.3701C98.2736 81.6156 97.2903 79.5376 98.4178 77.9052V77.9118ZM100.673 83.7134C100.207 83.4839 101.59 82.5465 101.781 82.245C101.25 82.4416 100.784 83.0054 100.384 83.4249C99.9517 82.0483 101.315 80.829 102.607 80.6979C102.829 80.6782 103.852 80.6717 103.931 80.8749C103.734 82.6383 102.652 84.2116 100.666 83.7068L100.673 83.7134ZM98.7521 89.3249C97.6509 87.863 99.4535 88.512 100.26 88.6103L98.5751 88.217C98.4309 88.0662 99.2175 87.7253 99.2896 87.7122C100.647 87.4762 101.466 88.335 102.121 89.397C101.23 90.1705 99.5256 90.3541 98.7521 89.3249ZM105.111 86.8993C103.754 87.7843 101.866 88.1318 100.706 86.7223L104.226 86.27L100.542 86.1913C101.04 85.0638 102.672 84.3624 103.826 84.8016C104.632 85.1097 105.104 85.8111 105.851 86.1913C105.976 86.329 105.248 86.8141 105.117 86.8993H105.111Z" fill="#54D200"/>
</g>
<defs>
<clipPath id="clip0_2060_196">
<rect width="112" height="112" fill="white"/>
</clipPath>
</defs>
</svg>
